<?xml version="1.0" encoding="utf-8"?>
<!-- Generator: Adobe Illustrator 18.1.0, SVG Export Plug-In . SVG Version: 6.00 Build 0)  -->
<svg version="1.1" id="Calque_1" xmlns="http://www.w3.org/2000/svg" xmlns:xlink="http://www.w3.org/1999/xlink" x="0px" y="0px"
	 width="512px" height="512px" viewBox="-223 25 512 512" enable-background="new -223 25 512 512" xml:space="preserve">
<g>
	<path d="M67.6,172v151.1c0,17.3-3.7,32.3-11.1,45.3c-7.4,12.9-18.1,22.9-32.1,29.9c-14,7-30.7,10.5-50.2,10.5
		c-29,0-51.5-7.7-67.6-23c-16.1-15.3-24.1-36.4-24.1-63.3V172h38.3v147.7c0,19.3,4.5,33.5,13.4,42.6s22.7,13.7,41.2,13.7
		c36,0,54-18.9,54-56.7V172H67.6z"/>
	<path d="M127.4,405.5V172h38.2v233.5H127.4z"/>
</g>
</svg>
