<?xml version="1.0" standalone="no"?>
<!DOCTYPE svg PUBLIC "-//W3C//DTD SVG 20010904//EN"
 "http://www.w3.org/TR/2001/REC-SVG-20010904/DTD/svg10.dtd">
<svg version="1.0" xmlns="http://www.w3.org/2000/svg"
 width="1048.000000pt" height="1048.000000pt" viewBox="0 0 1048.000000 1048.000000"
 preserveAspectRatio="xMidYMid meet">
<metadata>
Created by potrace 1.11, written by Peter Selinger 2001-2013
</metadata>
<g transform="translate(0.000000,1048.000000) scale(0.100000,-0.100000)"
fill="#000000" stroke="none">
<path d="M4208 9202 c-356 -119 -652 -222 -659 -228 -14 -15 -3 -51 19 -58 10
-3 152 39 317 94 165 55 305 100 311 100 7 0 39 -82 73 -182 33 -100 67 -188
75 -196 16 -16 51 -8 60 13 2 8 -24 100 -59 204 -35 105 -60 192 -57 195 4 2
140 47 302 101 162 54 301 102 308 108 29 23 8 69 -31 66 -7 0 -303 -98 -659
-217z"/>
<path d="M5975 9000 c-1144 -40 -2273 -437 -3180 -1119 -410 -307 -818 -716
-1126 -1126 -206 -274 -488 -739 -473 -779 3 -9 14 -18 23 -21 9 -3 341 103
737 236 862 289 4869 1630 5869 1964 391 131 718 246 729 255 35 33 13 53
-122 112 -800 352 -1599 507 -2457 478z m635 -95 c517 -45 1033 -158 1465
-322 144 -54 335 -135 335 -142 0 -3 -179 -65 -398 -138 -481 -160 -4283
-1432 -5657 -1893 -545 -183 -1000 -335 -1012 -337 -21 -5 -21 -1 15 63 92
167 268 430 421 629 306 399 671 758 1079 1064 819 612 1841 995 2882 1080
183 15 679 12 870 -4z"/>
<path d="M1632 5518 c-9 -9 -12 -440 -12 -1877 0 -2063 -4 -1924 65 -2066 113
-233 378 -406 745 -487 l105 -23 2705 0 2705 0 105 23 c367 81 632 254 745
487 69 142 65 8 65 2017 0 1638 -2 1818 -16 1832 -18 18 -23 19 -44 6 -13 -8
-16 -228 -20 -1847 l-5 -1838 -23 -65 c-106 -294 -450 -498 -894 -530 -196
-14 -5040 -14 -5236 0 -444 32 -788 236 -894 530 l-23 65 -5 1880 c-3 1034 -9
1886 -13 1893 -10 15 -39 16 -55 0z"/>
<path d="M416 4894 c-19 -19 -20 -36 -4 -52 17 -17 1149 -17 1166 0 18 18 14
46 -7 58 -13 6 -213 10 -580 10 -495 0 -561 -2 -575 -16z"/>
<path d="M8906 4894 c-20 -19 -20 -38 -2 -53 9 -8 171 -10 586 -9 525 3 574 4
583 20 9 13 7 22 -7 37 -19 21 -26 21 -582 21 -498 0 -564 -2 -578 -16z"/>
<path d="M2500 2730 l0 -911 133 3 132 3 0 687 c0 378 3 684 6 680 3 -4 34
-164 68 -357 35 -192 89 -496 122 -675 32 -179 59 -328 59 -332 0 -5 45 -8
100 -8 95 0 100 1 105 23 5 22 111 606 200 1102 26 143 49 262 51 264 2 2 4
-309 4 -693 l0 -697 133 3 132 3 3 908 2 907 -185 0 c-111 0 -185 -4 -185 -10
0 -5 -18 -103 -39 -217 -22 -114 -60 -320 -86 -458 -26 -137 -64 -344 -86
-458 -21 -114 -39 -213 -39 -219 0 -42 -17 31 -55 238 -25 132 -65 347 -90
479 -24 132 -61 331 -82 443 l-36 202 -184 0 -183 0 0 -910z"/>
<path d="M4155 3088 c-3 -7 -46 -204 -95 -438 -50 -234 -109 -508 -130 -609
-22 -102 -40 -193 -40 -203 0 -16 10 -18 88 -18 l89 0 28 138 c41 201 25 182
154 182 l110 0 11 -57 c7 -32 22 -103 34 -158 l21 -100 93 -3 c61 -2 92 1 92
8 0 6 -11 61 -25 123 -13 62 -47 220 -75 352 -28 132 -62 291 -75 353 -14 62
-39 179 -56 260 -16 81 -32 155 -35 165 -5 14 -18 17 -95 17 -63 0 -91 -4 -94
-12z m145 -555 c22 -133 40 -244 40 -247 0 -3 -41 -6 -91 -6 -81 0 -90 2 -85
18 2 9 21 118 41 242 38 231 45 262 51 245 2 -5 22 -119 44 -252z"/>
<path d="M4715 3088 c-3 -7 -4 -294 -3 -638 l3 -625 93 -3 92 -3 0 296 0 295
69 0 68 0 37 -122 c20 -68 61 -199 90 -293 l53 -170 93 -3 c72 -2 91 0 88 10
-42 108 -197 623 -190 626 6 2 28 16 50 32 113 81 133 337 37 482 -38 58 -145
105 -267 118 -139 14 -307 13 -313 -2z m367 -162 c50 -24 79 -73 85 -144 14
-150 -64 -232 -219 -232 l-48 0 0 201 0 201 73 -4 c41 -2 88 -11 109 -22z"/>
<path d="M5510 2460 l0 -641 88 3 87 3 5 467 5 468 85 -468 85 -467 70 -3 71
-3 83 463 c46 255 88 470 92 478 5 8 9 -200 9 -462 l0 -478 90 0 90 0 0 640 0
640 -125 0 c-121 0 -125 -1 -130 -22 -3 -13 -21 -111 -40 -218 -20 -107 -56
-304 -80 -436 -25 -133 -45 -247 -45 -253 0 -6 -4 -11 -9 -11 -4 0 -13 28 -19
63 -6 34 -26 148 -46 252 -19 105 -51 278 -70 385 -20 107 -38 205 -41 218 -5
21 -9 22 -130 22 l-125 0 0 -640z"/>
<path d="M6567 3094 c-4 -4 -7 -292 -7 -641 l0 -633 95 0 95 0 -2 638 -3 637
-85 3 c-47 1 -89 0 -93 -4z"/>
<path d="M6857 3093 c-4 -3 -7 -42 -7 -85 l0 -78 115 0 115 0 0 -555 0 -555
90 0 90 0 0 555 0 555 115 0 116 0 -3 83 -3 82 -311 3 c-171 1 -313 -1 -317
-5z"/>
<path d="M7580 2460 l0 -640 250 0 250 0 0 70 0 70 -160 0 -160 0 0 225 0 224
113 3 112 3 3 68 3 67 -116 0 -115 0 0 205 0 205 160 0 160 0 0 70 0 70 -250
0 -250 0 0 -640z"/>
</g>
</svg>
