<?xml version="1.0" standalone="no"?>
<!DOCTYPE svg PUBLIC "-//W3C//DTD SVG 20010904//EN"
 "http://www.w3.org/TR/2001/REC-SVG-20010904/DTD/svg10.dtd">
<svg version="1.0" xmlns="http://www.w3.org/2000/svg"
 width="500.000000pt" height="500.000000pt" viewBox="0 0 500.000000 500.000000"
 preserveAspectRatio="xMidYMid meet">
<metadata>
Created by potrace 1.14, written by Peter Selinger 2001-2017
</metadata>
<g transform="translate(0.000000,500.000000) scale(0.100000,-0.100000)"
fill="#000000" stroke="none">
<path d="M2281 3130 c-71 -24 -85 -39 -71 -74 13 -35 13 -77 0 -112 l-11 -27
-39 38 -40 39 -30 -29 -30 -29 37 -38 c27 -28 34 -41 26 -49 -15 -15 -104 -14
-132 1 -27 14 -22 17 -53 -45 -42 -83 -43 -101 -8 -115 34 -14 90 -73 90 -95
0 -11 -13 -15 -56 -15 l-55 0 3 -37 3 -38 53 -3 c37 -2 52 -7 52 -17 0 -21
-56 -81 -89 -94 -28 -12 -29 -13 -16 -56 24 -78 44 -108 68 -101 53 16 87 17
122 6 l37 -12 -41 -42 -41 -42 30 -29 30 -29 40 39 39 38 11 -29 c11 -28 9
-73 -5 -121 -6 -18 0 -25 42 -46 85 -42 98 -42 120 1 18 34 73 82 94 82 5 0 9
-25 9 -55 l0 -55 40 0 40 0 0 55 c0 42 3 55 15 55 22 0 94 -69 101 -96 3 -13
7 -24 8 -24 0 0 23 7 49 15 70 21 109 46 100 65 -11 25 -14 124 -4 140 9 12
17 8 50 -24 l41 -40 25 24 c14 13 25 28 25 34 0 6 -16 27 -37 48 l-36 37 29
11 c25 10 48 10 128 -2 22 -3 59 54 71 109 6 29 3 33 -35 54 -35 20 -80 72
-80 93 0 3 25 6 55 6 l55 0 0 40 0 40 -55 0 c-30 0 -55 4 -55 9 0 21 49 78 83
96 33 18 37 23 31 50 -9 49 -50 121 -65 115 -29 -9 -135 -10 -148 -1 -11 7 -6
16 23 41 43 38 44 49 11 80 l-25 24 -41 -40 c-33 -32 -41 -36 -49 -24 -13 20
-13 102 0 134 9 24 6 28 -38 50 -26 13 -60 26 -77 30 -27 6 -32 3 -50 -31 -18
-34 -75 -83 -96 -83 -5 0 -9 25 -9 55 l0 55 -40 0 -40 0 0 -55 c0 -30 -3 -55
-6 -55 -21 0 -73 45 -93 80 -12 22 -25 40 -29 39 -4 0 -31 -9 -61 -19z m442
-112 c-3 -29 2 -65 17 -107 l21 -64 -63 -64 c-57 -58 -66 -63 -105 -63 l-43 0
0 108 0 107 60 28 c34 16 72 43 87 62 16 19 29 35 29 35 1 0 -1 -19 -3 -42z
m-301 -59 l43 -17 3 -111 3 -111 -38 0 c-34 0 -46 8 -106 68 l-67 68 20 39
c13 26 20 59 20 98 l0 60 40 -39 c21 -22 59 -46 82 -55z m-155 -231 c58 -57
63 -66 63 -105 l0 -43 -108 0 -107 0 -18 49 c-11 30 -33 63 -59 87 l-43 39 65
0 c40 1 77 7 95 17 17 9 34 16 40 17 5 1 38 -27 72 -61z m613 41 c37 -14 70
-20 101 -17 l45 5 -41 -41 c-36 -37 -50 -61 -69 -118 -5 -16 -20 -18 -121 -18
l-115 0 0 32 c0 25 13 46 68 104 37 39 69 72 72 73 3 0 30 -8 60 -20z m-550
-312 c0 -39 -5 -48 -64 -106 l-63 -63 -34 18 c-19 9 -63 19 -99 22 l-65 4 42
44 c23 24 47 61 54 84 l12 40 109 0 108 0 0 -43z m590 16 c18 -50 35 -76 68
-107 l33 -31 -63 -6 c-35 -3 -79 -13 -98 -22 l-34 -17 -73 72 c-61 61 -73 78
-73 105 l0 33 115 0 115 0 10 -27z m-450 -217 l0 -113 -46 -18 c-26 -10 -64
-35 -85 -56 l-39 -39 0 58 c0 34 -8 74 -19 99 l-20 42 72 70 c59 59 77 71 104
71 l33 0 0 -114z m225 44 l68 -69 -19 -43 c-12 -27 -19 -64 -19 -103 l0 -60
-33 37 c-19 21 -58 49 -88 63 l-54 26 0 109 0 110 38 0 c33 0 45 -8 107 -70z"/>
<path d="M4517 2333 c-7 -39 -1 -40 11 -4 6 17 7 31 3 31 -5 0 -11 -12 -14
-27z"/>
<path d="M4585 2333 c-6 -27 -7 -27 -20 -9 -13 17 -14 15 -8 -19 5 -29 3 -36
-6 -31 -7 5 -10 14 -7 22 9 24 -3 15 -18 -13 -13 -24 -15 -25 -16 -8 -1 15 -3
16 -7 5 -3 -8 -19 -34 -35 -58 -16 -23 -26 -47 -22 -54 4 -6 3 -8 -3 -5 -5 3
-32 -17 -59 -45 -65 -68 -139 -121 -252 -184 -52 -28 -89 -55 -83 -58 6 -4 11
-14 11 -22 0 -8 -4 -13 -9 -10 -5 3 -16 -5 -24 -18 -13 -19 -23 -23 -49 -20
-25 3 -29 1 -18 -6 13 -9 11 -14 -12 -35 -16 -13 -28 -29 -28 -35 0 -5 -7 -10
-15 -10 -8 0 -15 -4 -15 -9 0 -6 -18 -20 -40 -32 -22 -13 -40 -27 -40 -31 0
-10 -29 -39 -90 -90 -25 -21 -75 -62 -111 -93 -36 -30 -72 -55 -78 -55 -7 0
-10 -4 -7 -8 7 -12 -5 -26 -47 -51 -20 -12 -35 -26 -32 -31 3 -4 -7 -15 -21
-25 -14 -9 -44 -34 -67 -56 -23 -21 -50 -42 -59 -45 -10 -3 -18 -12 -18 -20 0
-8 -7 -14 -15 -14 -8 0 -15 -5 -15 -10 0 -6 -11 -16 -25 -22 -14 -6 -25 -19
-25 -30 0 -10 -7 -18 -18 -18 -9 0 -23 -9 -30 -20 -9 -15 -19 -19 -37 -14 -31
8 -32 -5 -3 -30 20 -17 41 -19 212 -19 203 -1 302 10 452 48 207 52 374 141
513 272 198 185 302 407 332 706 12 126 2 337 -16 337 -7 0 -16 -12 -20 -27z
m-48 -85 c-3 -8 -6 -5 -6 6 -1 11 2 17 5 13 3 -3 4 -12 1 -19z m-426 -345
c-11 -5 -11 -7 0 -15 10 -6 7 -7 -8 -3 -14 4 -23 2 -23 -5 0 -6 -5 -8 -11 -4
-12 7 26 34 46 33 6 0 4 -3 -4 -6z"/>
<path d="M4015 1870 c3 -5 8 -10 11 -10 2 0 4 5 4 10 0 6 -5 10 -11 10 -5 0
-7 -4 -4 -10z"/>
</g>
</svg>
