<svg xmlns="http://www.w3.org/2000/svg" viewBox="96.526 50 318.949 412.001" enable-background="new 96.526 50 318.949 412.001"><path d="M265.653 50C153.22 50 96.526 130.612 96.526 197.833c0 40.702 15.411 76.914 48.462 90.41 5.418 2.215 10.275 0.077 11.847-5.925 1.093-4.152 3.681-14.631 4.835-18.99 1.584-5.936 0.97-8.018-3.403-13.191 -9.53-11.242-15.621-25.795-15.621-46.408 0-59.806 44.746-113.343 116.516-113.343 63.549 0 98.465 38.831 98.465 90.69 0 68.234-30.198 125.824-75.026 125.824 -24.759 0-43.29-20.476-37.351-45.586 7.114-29.98 20.894-62.333 20.894-83.975 0-19.37-10.397-35.527-31.918-35.527 -25.308 0-45.639 26.182-45.639 61.254 0 22.337 7.549 37.446 7.549 37.446s-25.898 109.737-30.439 128.954c-9.043 38.273-1.36 85.193-0.708 89.932 0.381 2.809 3.989 3.476 5.621 1.354 2.335-3.047 32.479-40.26 42.727-77.441 2.899-10.527 16.647-65.049 16.647-65.049 8.222 15.684 32.251 29.497 57.806 29.497 76.074 0 127.688-69.354 127.688-162.187C415.474 115.374 356.018 50 265.653 50z"/></svg>
