<svg xmlns="http://www.w3.org/2000/svg" xmlns:xlink="http://www.w3.org/1999/xlink" width="49.931" height="44" viewBox="0 0 49.931 44">
  <defs>
    <clipPath id="clip-path">
      <rect id="Rectangle_6483" data-name="Rectangle 6483" width="49.931" height="44" fill="#378ccc"/>
    </clipPath>
  </defs>
  <g id="Groupe_5917" data-name="Groupe 5917" transform="translate(49.931 43.999) rotate(180)">
    <path id="Tracé_11644" data-name="Tracé 11644" d="M229.327,28.032V24.15l2.745,2.744.226,4.428Zm4-2.4-2.745-2.745h3.882l3.292,2.971Zm0-7.271,4.429-.226-3.292,2.971h-3.882Zm-4-2.4,2.971-3.292-.226,4.429-2.745,2.745ZM227.546,0V4.693l-.053-.084V7.975l.053.085v5.247l-.053-.059v2.658l.053.06v3.882l-.053-.052V24.2l.053-.052v3.882l-.053.06v2.658l.053-.058v5.247l-.053.085v3.366l.053-.085V44h1.782V39.3l2.438,3.908,1.513-.943-3.951-6.331V30.691l5.006,5.545-.381-7.461,3.711,3.711,1.684,7.27,1.736-.4-1.04-4.489,3.32,3.319,1.26-1.259-3.32-3.319,4.489,1.038.4-1.735-7.271-1.684-3.711-3.711,7.461.381-5.545-5.006h5.248l6.332,3.95.943-1.512-3.91-2.439h4.7V21.108h-4.7l3.91-2.438-.943-1.512-6.332,3.95h-5.248l5.545-5.007-7.461.382,3.711-3.711,7.271-1.684-.4-1.736L241.3,10.392l3.32-3.319-1.26-1.26-3.32,3.32,1.04-4.49-1.736-.4-1.684,7.271-3.711,3.71.381-7.461-5.006,5.545V8.059l3.951-6.331L231.765.785l-2.438,3.908V0Z" transform="translate(-200.506)" fill="#378ccc"/>
    <g id="Groupe_5918" data-name="Groupe 5918" transform="translate(0 -0.001)">
      <g id="Groupe_5917-2" data-name="Groupe 5917" clip-path="url(#clip-path)">
        <path id="Tracé_11645" data-name="Tracé 11645" d="M22.838,35.786c-.289.019-.579.032-.872.032a13.263,13.263,0,0,1,0-26.526c.293,0,.584.013.872.032V7.6h-.011V.59H21.1V7.6a14.978,14.978,0,0,0-2.178.284L17.113,1.117l-1.665.447,1.813,6.765a14.856,14.856,0,0,0-2.026.842L11.728,3.1l-1.493.862,3.507,6.074A15.168,15.168,0,0,0,12,11.373L7.045,6.416,5.826,7.634l4.957,4.957a15.021,15.021,0,0,0-1.338,1.742L3.37,10.826l-.861,1.493,6.073,3.505a14.891,14.891,0,0,0-.842,2.026L.974,16.037.528,17.7l6.761,1.811a14.97,14.97,0,0,0-.284,2.179H0v1.723H7a15.069,15.069,0,0,0,.284,2.179L.528,27.406l.445,1.665,6.765-1.813a14.967,14.967,0,0,0,.842,2.027L2.509,32.79l.861,1.493,6.074-3.507a15.03,15.03,0,0,0,1.339,1.741L5.826,37.476l1.22,1.218L12,33.737a15.127,15.127,0,0,0,1.741,1.338L10.236,41.15l1.493.862,3.506-6.073a14.918,14.918,0,0,0,2.026.842l-1.812,6.766,1.665.447,1.811-6.762a14.946,14.946,0,0,0,2.178.284V44.52h1.724V37.514h.011Z" transform="translate(0 -0.52)" fill="#378ccc"/>
      </g>
    </g>
  </g>
</svg>
