<?xml version="1.0" encoding="utf-8"?>
<!-- Generator: Adobe Illustrator 21.1.0, SVG Export Plug-In . SVG Version: 6.00 Build 0)  -->
<svg version="1.1" id="Calque_1" xmlns="http://www.w3.org/2000/svg" xmlns:xlink="http://www.w3.org/1999/xlink" x="0px" y="0px"
	 viewBox="0 0 100 100" style="enable-background:new 0 0 100 100;" xml:space="preserve">
<path d="M95.7,44.8c-0.9-1.1-2.3-2.8-4.1-4.7l3.5-6.4c0.8-1.4,0.2-3.2-1.2-4s-3.2-0.2-4,1.2l-2.7,5c-2.2-1.9-4.7-3.8-7.6-5.7
	l3.4-8.8c0.6-1.5-0.2-3.2-1.7-3.8s-3.2,0.2-3.8,1.7l-3.1,8c-2.5-1.3-5.3-2.4-8.2-3.3l2.2-10.6c0.3-1.6-0.7-3.1-2.3-3.5
	c-1.6-0.3-3.1,0.7-3.5,2.3l-2.2,10.4c-2.4-0.5-4.9-0.8-7.6-1V9.5c0-1.6-1.3-2.9-2.9-2.9S47,7.9,47,9.5v12.1
	c-2.6,0.1-5.2,0.5-7.6,0.9l-2.1-10.3c-0.3-1.6-1.9-2.6-3.4-2.3c-1.6,0.3-2.6,1.9-2.3,3.5L33.8,24c-2.9,0.9-5.7,2-8.2,3.3l-3.1-7.9
	c-0.6-1.5-2.3-2.2-3.8-1.7c-1.5,0.6-2.2,2.3-1.7,3.8l3.4,8.7C17.5,32,15,34,12.8,35.8l-2.6-4.9c-0.8-1.4-2.5-1.9-4-1.2
	c-1.4,0.8-1.9,2.5-1.2,4l3.4,6.2c-1.9,2-3.4,3.7-4.3,4.9c-2.4,3.1-2.4,7.4,0,10.5c4.2,5.4,19.7,23,45,23.3c0.2,0,0.5,0,0.7,0
	s0.5,0,0.7,0c25.3-0.3,40.8-17.9,45-23.3C98.1,52.2,98.1,47.9,95.7,44.8z M8.9,51.7c-0.8-1-0.8-2.4,0-3.3
	c2.4-3.2,8.6-10.2,18.1-15.3c-3.5,4.7-5.6,10.6-5.6,16.9s2.1,12.2,5.6,16.9C17.5,61.9,11.4,54.9,8.9,51.7z M50.7,72.8
	c-0.2,0-0.5,0-0.7,0s-0.5,0-0.7,0c-12.2-0.4-22-10.4-22-22.7S37,27.8,49.2,27.4c0.3,0,0.6,0,0.8,0s0.6,0,0.8,0
	C63,27.8,72.7,37.8,72.7,50.1S62.9,72.4,50.7,72.8z M91.1,51.7C88.7,54.9,82.5,61.9,73,67c3.5-4.7,5.6-10.6,5.6-16.9
	S76.5,37.9,73,33.2c9.5,5.1,15.7,12.1,18.1,15.3C91.8,49.4,91.8,50.7,91.1,51.7z"/>
<path d="M50,36c-1.9,0-3.7,0.4-5.4,1.1c1.7,0.9,2.8,2.8,2.8,4.8c0,3.1-2.5,5.5-5.5,5.5c-2.1,0-3.9-1.1-4.8-2.8
	C36.4,46.3,36,48.1,36,50c0,7.7,6.3,14,14,14s14-6.3,14-14S57.7,36,50,36z"/>
</svg>
