<svg id="Groupe_5621" data-name="Groupe 5621" xmlns="http://www.w3.org/2000/svg" xmlns:xlink="http://www.w3.org/1999/xlink" width="30.088" height="21.891" viewBox="0 0 30.088 21.891">
  <defs>
    <clipPath id="clip-path">
      <rect id="Rectangle_6083" data-name="Rectangle 6083" width="30.088" height="21.891" fill="#fff" stroke="#fff" stroke-width="0.2"/>
    </clipPath>
  </defs>
  <g id="Groupe_5620" data-name="Groupe 5620" clip-path="url(#clip-path)">
    <path id="Tracé_11274" data-name="Tracé 11274" d="M28.046,0h-26A2.037,2.037,0,0,0,0,2.041V19.849a2.037,2.037,0,0,0,2.041,2.041h26a2.037,2.037,0,0,0,2.041-2.041V2.041A2.037,2.037,0,0,0,28.046,0m-26,.974h26V.942a.87.87,0,0,1,.283.031,1.5,1.5,0,0,1-.377.691l-11.9,11.9a1.375,1.375,0,0,1-1.005.408,1.453,1.453,0,0,1-1.005-.408L2.136,1.7a1.5,1.5,0,0,1-.377-.691A.87.87,0,0,1,2.041.974M1.005,20.226a1.576,1.576,0,0,1-.063-.377V2.041a1.576,1.576,0,0,1,.063-.377,3.363,3.363,0,0,0,.471.691l8.605,8.605L1.476,19.566a2.515,2.515,0,0,0-.471.66m27.041.754h-26c-.094,0-.188-.031-.283-.031a1.6,1.6,0,0,1,.377-.722l8.605-8.605,2.607,2.607a2.427,2.427,0,0,0,3.392,0l2.607-2.607,8.605,8.605a1.456,1.456,0,0,1,.377.722.869.869,0,0,1-.283.031m1.1-1.131a1.576,1.576,0,0,1-.063.377,3.363,3.363,0,0,0-.471-.691l-8.605-8.574,8.605-8.605a2.687,2.687,0,0,0,.471-.691,1.576,1.576,0,0,1,.063.377Z" fill="#fff" stroke="#fff" stroke-width="0.2"/>
  </g>
</svg>
