<svg xmlns="http://www.w3.org/2000/svg" xmlns:xlink="http://www.w3.org/1999/xlink" width="51.001" height="48.792" viewBox="0 0 51.001 48.792">
  <defs>
    <clipPath id="clip-path">
      <rect id="Rectangle_6031" data-name="Rectangle 6031" width="51.001" height="48.792" fill="none" stroke="#fff" stroke-width="1"/>
    </clipPath>
  </defs>
  <g id="Groupe_5579" data-name="Groupe 5579" opacity="0.8">
    <g id="Groupe_5578" data-name="Groupe 5578" transform="translate(0 0)" clip-path="url(#clip-path)">
      <path id="Tracé_10327" data-name="Tracé 10327" d="M50.465,49.006H39.81a.75.75,0,0,1-.75-.75V31.107a8.6,8.6,0,0,0-1.123-4.817,3.937,3.937,0,0,0-3.525-1.681,5.125,5.125,0,0,0-4.774,3.427,6.5,6.5,0,0,0-.3,2.319v17.9a.75.75,0,0,1-.75.75H17.933a.75.75,0,0,1-.75-.754c0-.29.141-29.059,0-32.014a.75.75,0,0,1,.749-.785H28.59a.75.75,0,0,1,.75.75v2.292A11.12,11.12,0,0,1,38.2,14.7a12.27,12.27,0,0,1,9.316,3.763,13,13,0,0,1,2.735,4.77,21.141,21.141,0,0,1,.969,6.644V48.256A.75.75,0,0,1,50.465,49.006Zm-9.905-1.5h9.155V29.875c0-8.691-4.2-13.676-11.52-13.677a9.789,9.789,0,0,0-8.868,4.789.75.75,0,0,1-.737.611H28.52a.75.75,0,0,1-.681-1.065V16.952H18.7c.095,4.971,0,26.175-.018,30.553H27.84V30.355a7.724,7.724,0,0,1,.409-2.884,7.4,7.4,0,0,1,2.139-2.963,6.209,6.209,0,0,1,4.024-1.4,5.4,5.4,0,0,1,4.764,2.336,10.012,10.012,0,0,1,1.383,5.662Zm-28.523,1.5H1.382a.75.75,0,0,1-.75-.75V16.2a.75.75,0,0,1,.75-.75H12.037a.75.75,0,0,1,.75.75V48.255A.75.75,0,0,1,12.037,49.005Zm-9.905-1.5h9.155V16.953H2.132Zm4.58-34.928H6.64a6.8,6.8,0,0,1-4.809-1.83A6.163,6.163,0,0,1,0,6.286,6.09,6.09,0,0,1,1.884,1.793,6.975,6.975,0,0,1,6.781,0a6.791,6.791,0,0,1,4.842,1.8,6.339,6.339,0,0,1,1.866,4.47q0,.008,0,.017a6.114,6.114,0,0,1-1.851,4.466A6.939,6.939,0,0,1,6.712,12.578ZM6.781,1.5C3.672,1.5,1.5,3.468,1.5,6.286s2.113,4.792,5.14,4.792h.072c3.1,0,5.273-1.966,5.278-4.783C11.922,3.427,9.83,1.5,6.781,1.5Z" transform="translate(-0.107 -0.107)" fill="#fff"/>
    </g>
  </g>
</svg>
