<svg xmlns="http://www.w3.org/2000/svg" xmlns:xlink="http://www.w3.org/1999/xlink" width="96.059" height="61.4" viewBox="0 0 96.059 61.4">
  <defs>
    <clipPath id="clip-path">
      <rect id="Rectangle_6501" data-name="Rectangle 6501" width="96.059" height="61.4" fill="#378ccc"/>
    </clipPath>
  </defs>
  <g id="Groupe_6480" data-name="Groupe 6480" transform="translate(0 0)">
    <g id="Groupe_6479" data-name="Groupe 6479" transform="translate(0 0)" clip-path="url(#clip-path)">
      <path id="Tracé_13408" data-name="Tracé 13408" d="M80.379,0H15.68L0,61.4H96.06ZM17.241,2.009H36.415l-.683,8.222a1,1,0,0,0,.917,1.084.8.8,0,0,0,.084,0,1,1,0,0,0,1-.921l.7-8.389H57.01l.7,8.389a1,1,0,0,0,1,.921.791.791,0,0,0,.084,0,1,1,0,0,0,.918-1.084l-.683-8.222h19.8L93.474,59.391H64.037a.987.987,0,0,0,.067-.432l-.465-5.777a1,1,0,1,0-2,.161L62.1,59.12a.978.978,0,0,0,.075.271H33.116a.986.986,0,0,0,.056-.2l.465-5.777a1,1,0,1,0-2-.161l-.465,5.777a.981.981,0,0,0,.043.365H2.587Z" transform="translate(0 0)" fill="#378ccc"/>
      <path id="Tracé_13409" data-name="Tracé 13409" d="M35.768,15.832a.848.848,0,0,0,.087,0,1,1,0,0,0,1-.918l.043-.5a1,1,0,1,0-2-.173l-.043.5a1,1,0,0,0,.914,1.087" transform="translate(0.154 0.059)" fill="#378ccc"/>
      <path id="Tracé_13410" data-name="Tracé 13410" d="M34.436,31.552a.848.848,0,0,0,.087,0,1,1,0,0,0,1-.918l.083-.962a1,1,0,0,0-.915-1.087A.993.993,0,0,0,33.6,29.5l-.082.962a1,1,0,0,0,.914,1.087" transform="translate(0.148 0.126)" fill="#378ccc"/>
      <path id="Tracé_13411" data-name="Tracé 13411" d="M34.848,26.766a.847.847,0,0,0,.087,0,1,1,0,0,0,1-.918l.083-.961a1,1,0,0,0-2-.173l-.082.961a1,1,0,0,0,.914,1.087" transform="translate(0.15 0.105)" fill="#378ccc"/>
      <path id="Tracé_13412" data-name="Tracé 13412" d="M34.024,36.337a.83.83,0,0,0,.086,0,1,1,0,0,0,1-.918l.083-.962a1,1,0,0,0-.915-1.087.99.99,0,0,0-1.087.914l-.082.962a1,1,0,0,0,.915,1.087" transform="translate(0.146 0.147)" fill="#378ccc"/>
      <path id="Tracé_13413" data-name="Tracé 13413" d="M33.611,41.122a.846.846,0,0,0,.087,0,1,1,0,0,0,1-.918l.083-.962a1,1,0,0,0-.915-1.087.992.992,0,0,0-1.087.914l-.082.962a1,1,0,0,0,.914,1.087" transform="translate(0.144 0.169)" fill="#378ccc"/>
      <path id="Tracé_13414" data-name="Tracé 13414" d="M32.955,49.786a.848.848,0,0,0,.087,0,1,1,0,0,0,1-.918l.043-.5a1,1,0,0,0-.914-1.087.991.991,0,0,0-1.087.914l-.043.5a1,1,0,0,0,.914,1.087" transform="translate(0.141 0.209)" fill="#378ccc"/>
      <path id="Tracé_13415" data-name="Tracé 13415" d="M58.937,15.836a.848.848,0,0,0,.087,0,1,1,0,0,0,.914-1.087l-.043-.5a1,1,0,1,0-2,.173l.043.5a1,1,0,0,0,1,.918" transform="translate(0.256 0.059)" fill="#378ccc"/>
      <path id="Tracé_13416" data-name="Tracé 13416" d="M60.92,38.159a1,1,0,0,0-.914,1.087l.082.962a1,1,0,0,0,1,.918.848.848,0,0,0,.087,0,1,1,0,0,0,.915-1.087l-.082-.962a1,1,0,0,0-1.088-.914" transform="translate(0.265 0.169)" fill="#378ccc"/>
      <path id="Tracé_13417" data-name="Tracé 13417" d="M60.507,33.374a1,1,0,0,0-.914,1.087l.082.962a1,1,0,0,0,1,.918.848.848,0,0,0,.087,0,1,1,0,0,0,.915-1.087l-.083-.962a1,1,0,0,0-1.087-.914" transform="translate(0.263 0.147)" fill="#378ccc"/>
      <path id="Tracé_13418" data-name="Tracé 13418" d="M60.1,28.589a1,1,0,0,0-.914,1.087l.082.962a1,1,0,0,0,1,.918.849.849,0,0,0,.087,0,1,1,0,0,0,.915-1.087l-.083-.962a1,1,0,0,0-1.087-.914" transform="translate(0.261 0.126)" fill="#378ccc"/>
      <path id="Tracé_13419" data-name="Tracé 13419" d="M58.769,24.891l.083.961a1,1,0,0,0,1,.918.874.874,0,0,0,.087,0,1,1,0,0,0,.914-1.087l-.083-.961a1,1,0,0,0-2,.173" transform="translate(0.259 0.105)" fill="#378ccc"/>
      <path id="Tracé_13420" data-name="Tracé 13420" d="M60.707,48.373l.043.5a1,1,0,0,0,1,.918c.028,0,.058,0,.088,0a1,1,0,0,0,.914-1.087l-.044-.5a.99.99,0,0,0-1.086-.914,1,1,0,0,0-.914,1.087" transform="translate(0.268 0.209)" fill="#378ccc"/>
    </g>
  </g>
</svg>
