<svg xmlns="http://www.w3.org/2000/svg" viewBox="0 0 103.15 83.829" enable-background="new 0 0 103.15 83.829"><path d="M103.15 9.923c-3.795 1.683-7.873 2.821-12.154 3.333 4.369-2.619 7.726-6.766 9.306-11.708 -4.091 2.425-8.618 4.186-13.438 5.135C83.002 2.57 77.502 0 71.416 0 57.757 0 47.714 12.748 50.802 25.985 33.213 25.103 17.619 16.677 7.183 3.874c-5.546 9.509-2.876 21.955 6.549 28.254 -3.47-0.109-6.733-1.062-9.586-2.647 -0.229 9.805 6.798 18.973 16.974 21.018 -2.979 0.81-6.241 0.996-9.557 0.362 2.692 8.408 10.508 14.525 19.77 14.696C22.434 72.53 11.229 75.644 0 74.32c9.365 6.004 20.49 9.509 32.441 9.509 39.289 0 61.488-33.187 60.15-62.951C96.727 17.895 100.314 14.167 103.15 9.923z"/></svg>

