<svg xmlns="http://www.w3.org/2000/svg" width="512" height="512" viewBox="0 0 512 512"><path d="M460.802 160.227c-1.845 40.12-29.853 95.053-84.027 164.78-56.02 72.83-103.412 109.25-142.18 109.25-24.006 0-44.337-22.17-60.935-66.536-11.088-40.66-22.17-81.32-33.253-121.98-12.327-44.34-25.55-66.536-39.69-66.536-3.08 0-13.87 6.49-32.332 19.413L49 173.635c20.33-17.87 40.392-35.742 60.127-53.637 27.115-23.44 47.474-35.767 61.045-37.015 32.062-3.08 51.8 18.846 59.21 65.78 8 50.636 13.542 82.13 16.65 94.46 9.242 42.013 19.408 62.996 30.52 62.996 8.623 0 21.575-13.63 38.85-40.88 17.247-27.254 26.5-47.988 27.74-62.237 2.463-23.52-6.79-35.31-27.74-35.31-9.867 0-20.03 2.272-30.494 6.76 20.248-66.345 58.936-98.57 116.035-96.735 42.334 1.25 62.29 28.714 59.86 82.41z"/></svg>