<svg xmlns="http://www.w3.org/2000/svg" xmlns:xlink="http://www.w3.org/1999/xlink" width="24.732" height="32.032" viewBox="0 0 24.732 32.032">
  <defs>
    <clipPath id="clip-path">
      <rect id="Rectangle_6085" data-name="Rectangle 6085" width="20" height="29" transform="translate(-4 -3.635)" fill="#fff" stroke="#fff" stroke-width="0.2"/>
    </clipPath>
  </defs>
  <g id="Groupe_5851" data-name="Groupe 5851" transform="matrix(0.985, -0.174, 0.174, 0.985, 4.658, 6.463)">
    <g id="Groupe_5622" data-name="Groupe 5622" transform="translate(-0.068 -0.118)" clip-path="url(#clip-path)">
      <path id="Tracé_11275" data-name="Tracé 11275" d="M1.688,21.283h8.775a1.7,1.7,0,0,0,1.688-1.716V1.716A1.7,1.7,0,0,0,10.463,0H1.688A1.7,1.7,0,0,0,0,1.716V19.567a1.7,1.7,0,0,0,1.688,1.716m8.775-.687H1.688a1.023,1.023,0,0,1-1.013-1.03V18.194h10.8v1.373a1.023,1.023,0,0,1-1.013,1.03M.675,3.776h10.8V17.507H.675ZM1.688.687h8.775a1.023,1.023,0,0,1,1.013,1.03V3.09H.675V1.716A1.023,1.023,0,0,1,1.688.687" transform="translate(0.046 0.081)" stroke-width="0.2"/>
      <rect id="Rectangle_6084" data-name="Rectangle 6084" width="2" height="1" transform="translate(5 19.365)" fill="#fff" stroke="#fff" stroke-width="0.2"/>
    </g>
  </g>
</svg>
