<svg xmlns="http://www.w3.org/2000/svg" viewBox="0 0 192 101.454" enable-background="new 0 0 192 101.454"><path d="M141.273 0C121.498 0 104.367 11.316 96 27.825 87.633 11.316 70.502 0 50.727 0 22.711 0 0 22.711 0 50.728c0 28.015 22.711 50.727 50.729 50.727 19.774 0 36.904-11.316 45.271-27.825 8.369 16.509 25.498 27.825 45.274 27.825 28.015 0 50.726-22.711 50.726-50.727C192 22.711 169.289 0 141.273 0zM141.273 87.927c-20.512 0-37.199-16.688-37.199-37.199s16.688-37.2 37.199-37.2 37.199 16.688 37.199 37.2S161.785 87.927 141.273 87.927z"/></svg>
