<svg xmlns="http://www.w3.org/2000/svg" version="1.1" x="0px" y="0px" width="288.402px" height="282.862px" viewBox="-460.729 249.569 288.402 282.862" enable-background="new -460.729 249.569 288.402 282.862" xml:space="preserve"><path d="M-315.538 410.478c-26.771-19.523-33.313-30.558-7.761-50.312 14.396-11.133 24.485-25.973 24.485-44.295 0-19.961-8.162-38.071-23.51-46.864h21.755l18.521-19.438c0 0-69.817 0-82.879 0 -51.736 0-77.105 31.01-77.105 65.123 0 34.857 23.915 62.313 70.615 62.313 -7.24 14.617-4.332 28.117 7.514 37.771 -79.759 0-96.826 34.998-96.826 61.957 0 34.935 40.154 55.698 88.306 55.698 65.835 0.002 92.004-34.887 92.004-63.548C-280.419 445.52-289.145 430.255-315.538 410.478zM-410.862 314.171c-3.858-29.341 11.122-51.789 33.458-51.124 22.329 0.676 41.44 24.737 45.294 54.07 3.853 29.338-8.999 48.216-31.327 47.552C-385.777 363.996-407.006 343.504-410.862 314.171zM-372.19 516.906c-33.281 0-57.312-21.063-57.312-46.375 0-24.8 28.202-46.195 61.479-45.829 36.928 0 58.938 22.996 58.938 47.122C-309.086 497.135-329.643 516.906-372.19 516.906z"/><polygon points="-172.327 291.626 -210.562 291.626 -210.562 253.393 -229.68 253.393 -229.68 291.626 -267.913 291.626 -267.913 310.743 -229.68 310.743 -229.68 348.978 -210.563 348.978 -210.563 310.743 -172.328 310.743 "/></svg>