<svg xmlns="http://www.w3.org/2000/svg" xmlns:xlink="http://www.w3.org/1999/xlink" width="32.739" height="32.487" viewBox="0 0 32.739 32.487">
  <defs>
    <clipPath id="clip-path">
      <rect id="Rectangle_6457" data-name="Rectangle 6457" width="28.308" height="27.996" fill="#fff" stroke="#fff" stroke-width="0.2"/>
    </clipPath>
  </defs>
  <g id="Groupe_5818" data-name="Groupe 5818" transform="matrix(0.985, -0.174, 0.174, 0.985, 0, 4.916)">
    <g id="Groupe_5817" data-name="Groupe 5817" transform="translate(0 0)" clip-path="url(#clip-path)">
      <path id="Tracé_11541" data-name="Tracé 11541" d="M14.233,32.2H8.023a.453.453,0,1,0,0,.905h6.21a.453.453,0,0,0,0-.905" transform="translate(-3.059 -13.011)" fill="#fff" stroke="#fff" stroke-width="0.2"/>
      <path id="Tracé_11542" data-name="Tracé 11542" d="M8.023,27.423h8.469a.453.453,0,0,0,0-.905H8.023a.453.453,0,0,0,0,.905" transform="translate(-3.059 -10.714)" fill="#fff" stroke="#fff" stroke-width="0.2"/>
      <path id="Tracé_11543" data-name="Tracé 11543" d="M8.023,21.739H20.445a.453.453,0,0,0,0-.905H8.023a.453.453,0,0,0,0,.905" transform="translate(-3.059 -8.418)" fill="#fff" stroke="#fff" stroke-width="0.2"/>
      <path id="Tracé_11544" data-name="Tracé 11544" d="M8.023,16.054H20.445a.453.453,0,0,0,0-.905H8.023a.453.453,0,0,0,0,.905" transform="translate(-3.059 -6.121)" fill="#fff" stroke="#fff" stroke-width="0.2"/>
      <path id="Tracé_11545" data-name="Tracé 11545" d="M27.86,10.705,26.324,9.17a1.572,1.572,0,0,0-2.167,0l-1.536,1.535-.272.272V6.094c0-.01,0-.018-.005-.027a.424.424,0,0,0-.024-.119.347.347,0,0,0-.015-.042.448.448,0,0,0-.086-.129L16.573.131a.456.456,0,0,0-.128-.087L16.4.029a.466.466,0,0,0-.118-.024C16.275,0,16.267,0,16.257,0H2.706A2.709,2.709,0,0,0,0,2.706V25.29A2.709,2.709,0,0,0,2.706,28H19.643a2.71,2.71,0,0,0,2.706-2.706V18.384l3.975-3.975,1.536-1.535a1.536,1.536,0,0,0,0-2.168M20.823,5.647H16.7V1.526Zm.632,19.643A1.814,1.814,0,0,1,19.643,27.1H2.706A1.814,1.814,0,0,1,.894,25.29V2.706A1.813,1.813,0,0,1,2.706.894h13.1v5.2a.448.448,0,0,0,.447.447h5.2v5.33l-6.961,6.961,0,0a.436.436,0,0,0-.1.178c0,.007-.009.012-.011.019l-1.124,4.2a.433.433,0,0,0,.3.536.475.475,0,0,0,.057.011.3.3,0,0,0,.194,0L18,22.652c.007,0,.012-.009.019-.011a.436.436,0,0,0,.178-.1l0,0,3.258-3.258Zm-4.438-3.3-2.7.723.725-2.7Zm4.569-4.106-3.706,3.705-2.439-2.439,6.777-6.777.719-.719,2.439,2.439Zm5.642-5.641-1.22,1.219-2.439-2.439L24.789,9.8a.658.658,0,0,1,.9,0l1.536,1.535a.641.641,0,0,1,0,.9" transform="translate(0 0)" fill="#fff" stroke="#fff" stroke-width="0.2"/>
    </g>
  </g>
</svg>
