<svg xmlns="http://www.w3.org/2000/svg" xmlns:xlink="http://www.w3.org/1999/xlink" width="49.168" height="58.312" viewBox="0 0 49.168 58.312">
  <defs>
    <clipPath id="clip-path">
      <rect id="Rectangle_6475" data-name="Rectangle 6475" width="48.302" height="57.287" fill="none" stroke="#378ccc" stroke-width="1"/>
    </clipPath>
  </defs>
  <g id="Groupe_5907" data-name="Groupe 5907" transform="translate(0 0.511)">
    <g id="Groupe_5900" data-name="Groupe 5900">
      <g id="Groupe_5899" data-name="Groupe 5899" clip-path="url(#clip-path)">
        <path id="Tracé_11631" data-name="Tracé 11631" d="M21.861,12.691,41.719,23.9v24.07L20.9,59.611,1,48.155V24.084Z" transform="translate(-0.638 -8.098)" fill="none" stroke="#378ccc" stroke-miterlimit="10" stroke-width="2"/>
        <path id="Tracé_11632" data-name="Tracé 11632" d="M1,43.853,20.9,55.607,41.719,43.672" transform="translate(-0.638 -27.866)" fill="none" stroke="#378ccc" stroke-miterlimit="10" stroke-width="2"/>
      </g>
    </g>
    <line id="Ligne_22" data-name="Ligne 22" y2="23.773" transform="translate(20.26 27.741)" fill="none" stroke="#378ccc" stroke-miterlimit="10" stroke-width="2"/>
    <g id="Groupe_5902" data-name="Groupe 5902">
      <g id="Groupe_5901" data-name="Groupe 5901" clip-path="url(#clip-path)">
        <line id="Ligne_23" data-name="Ligne 23" x2="16.037" y2="9.539" transform="translate(29.061 0.797)" fill="none" stroke="#378ccc" stroke-miterlimit="10" stroke-width="2"/>
      </g>
    </g>
    <path id="Tracé_11633" data-name="Tracé 11633" d="M77.654,1.89,78.761.028,76.6,0Z" transform="translate(-48.875 0)" fill="#0049ff" stroke="#378ccc" stroke-width="1"/>
    <path id="Tracé_11634" data-name="Tracé 11634" d="M122.325,27.4l2.165.028-1.058-1.889Z" transform="translate(-78.053 -16.297)" fill="#0049ff" stroke="#378ccc" stroke-width="1"/>
    <g id="Groupe_5904" data-name="Groupe 5904">
      <g id="Groupe_5903" data-name="Groupe 5903" clip-path="url(#clip-path)">
        <line id="Ligne_24" data-name="Ligne 24" y2="19.109" transform="translate(47.219 17.364)" fill="none" stroke="#378ccc" stroke-miterlimit="10" stroke-width="2"/>
      </g>
    </g>
    <path id="Tracé_11635" data-name="Tracé 11635" d="M127.478,45.547h2.165l-1.083-1.875Z" transform="translate(-81.341 -27.866)" fill="#0049ff" stroke="#378ccc" stroke-width="1"/>
    <path id="Tracé_11636" data-name="Tracé 11636" d="M127.478,99.9l1.083,1.875,1.083-1.875Z" transform="translate(-81.341 -63.745)" fill="#0049ff" stroke="#378ccc" stroke-width="1"/>
    <g id="Groupe_5906" data-name="Groupe 5906">
      <g id="Groupe_5905" data-name="Groupe 5905" clip-path="url(#clip-path)">
        <line id="Ligne_25" data-name="Ligne 25" x1="16.342" y2="9.791" transform="translate(23.402 46.695)" fill="none" stroke="#378ccc" stroke-miterlimit="10" stroke-width="2"/>
      </g>
    </g>
    <path id="Tracé_11637" data-name="Tracé 11637" d="M107.528,126.843l2.165-.035-1.052,1.892Z" transform="translate(-68.612 -80.914)" fill="#0049ff" stroke="#378ccc" stroke-width="1"/>
    <path id="Tracé_11638" data-name="Tracé 11638" d="M60.968,154.95l2.165-.035-1.113-1.858Z" transform="translate(-38.902 -97.663)" fill="#0049ff" stroke="#378ccc" stroke-width="1"/>
  </g>
</svg>
