<svg xmlns="http://www.w3.org/2000/svg" xmlns:xlink="http://www.w3.org/1999/xlink" width="46.492" height="46.491" viewBox="0 0 46.492 46.491">
  <defs>
    <clipPath id="clip-path">
      <rect id="Rectangle_6485" data-name="Rectangle 6485" width="46.492" height="46.492" fill="#378ccc"/>
    </clipPath>
  </defs>
  <g id="Groupe_5922" data-name="Groupe 5922" transform="translate(0 0)">
    <g id="Groupe_5921" data-name="Groupe 5921" transform="translate(0 0)" clip-path="url(#clip-path)">
      <path id="Tracé_11647" data-name="Tracé 11647" d="M39.683,6.808A23.252,23.252,0,0,0,1.7,31.992.915.915,0,0,0,3.4,31.3,21.42,21.42,0,0,1,38.39,8.1,21.42,21.42,0,0,1,12.278,41.645a2.884,2.884,0,0,1-1.743-2.493,3.446,3.446,0,0,1,1.087-2.826l.907-.906a2.071,2.071,0,0,0,1.937-.55l2.218-2.217a9.8,9.8,0,0,0,12.228-1.309l4.033-4.032.981.981A.914.914,0,1,0,35.22,27l-1.628-1.628h0l-1.185-1.186,6.324-6.324A1.247,1.247,0,0,0,36.967,16.1l-6.324,6.324-3.334-3.333-3.334-3.335L30.3,9.43a1.247,1.247,0,1,0-1.763-1.763L22.212,13.99,19.4,11.177a.914.914,0,1,0-1.294,1.293l.982.982-4.033,4.033a9.814,9.814,0,0,0-1.309,12.228L11.527,31.93a2.072,2.072,0,0,0-.419,2.323l-.78.78A5.261,5.261,0,0,0,8.72,39.377a4.647,4.647,0,0,0,2.621,3.839A23.248,23.248,0,0,0,39.683,6.808M16.348,18.777l4.032-4.032L31.652,26.016,27.619,30.05A7.97,7.97,0,0,1,16.348,18.777" transform="translate(0 0)" fill="#378ccc"/>
      <path id="Tracé_11648" data-name="Tracé 11648" d="M29.695,30.449a.914.914,0,0,0,1.294-1.293l-5.909-5.908a.914.914,0,0,0-1.293,1.292Z" transform="translate(-3.965 -3.874)" fill="#378ccc"/>
      <path id="Tracé_11649" data-name="Tracé 11649" d="M25.231,33.782a.914.914,0,0,0,1.294-1.293L22.034,28a.914.914,0,0,0-1.293,1.293Z" transform="translate(-3.452 -4.675)" fill="#378ccc"/>
    </g>
  </g>
</svg>
