<svg version="1.0" xmlns="http://www.w3.org/2000/svg" width="1397.333" height="1397.333" viewBox="0 0 1048 1048"><path d="M420.8 127.8c-35.6 11.9-65.2 22.2-65.9 22.8-1.4 1.5-.3 5.1 1.9 5.8 1 .3 15.2-3.9 31.7-9.4s30.5-10 31.1-10c.7 0 3.9 8.2 7.3 18.2 3.3 10 6.7 18.8 7.5 19.6 1.6 1.6 5.1.8 6-1.3.2-.8-2.4-10-5.9-20.4-3.5-10.5-6-19.2-5.7-19.5.4-.2 14-4.7 30.2-10.1 16.2-5.4 30.1-10.2 30.8-10.8 2.9-2.3.8-6.9-3.1-6.6-.7 0-30.3 9.8-65.9 21.7z"/><path d="M597.5 148c-114.4 4-227.3 43.7-318 111.9-41 30.7-81.8 71.6-112.6 112.6-20.6 27.4-48.8 73.9-47.3 77.9.3.9 1.4 1.8 2.3 2.1.9.3 34.1-10.3 73.7-23.6 86.2-28.9 486.9-163 586.9-196.4 39.1-13.1 71.8-24.6 72.9-25.5 3.5-3.3 1.3-5.3-12.2-11.2-80-35.2-159.9-50.7-245.7-47.8zm63.5 9.5c51.7 4.5 103.3 15.8 146.5 32.2 14.4 5.4 33.5 13.5 33.5 14.2 0 .3-17.9 6.5-39.8 13.8-48.1 16-428.3 143.2-565.7 189.3-54.5 18.3-100 33.5-101.2 33.7-2.1.5-2.1.1 1.5-6.3 9.2-16.7 26.8-43 42.1-62.9 30.6-39.9 67.1-75.8 107.9-106.4 81.9-61.2 184.1-99.5 288.2-108 18.3-1.5 67.9-1.2 87 .4zM163.2 496.2c-.9.9-1.2 44-1.2 187.7 0 206.3-.4 192.4 6.5 206.6 11.3 23.3 37.8 40.6 74.5 48.7l10.5 2.3h541l10.5-2.3c36.7-8.1 63.2-25.4 74.5-48.7 6.9-14.2 6.5-.8 6.5-201.7 0-163.8-.2-181.8-1.6-183.2-1.8-1.8-2.3-1.9-4.4-.6-1.3.8-1.6 22.8-2 184.7l-.5 183.8-2.3 6.5c-10.6 29.4-45 49.8-89.4 53-19.6 1.4-504 1.4-523.6 0-44.4-3.2-78.8-23.6-89.4-53l-2.3-6.5-.5-188c-.3-103.4-.9-188.6-1.3-189.3-1-1.5-3.9-1.6-5.5 0zM41.6 558.6c-1.9 1.9-2 3.6-.4 5.2 1.7 1.7 114.9 1.7 116.6 0 1.8-1.8 1.4-4.6-.7-5.8-1.3-.6-21.3-1-58-1-49.5 0-56.1.2-57.5 1.6zm849 0c-2 1.9-2 3.8-.2 5.3.9.8 17.1 1 58.6.9 52.5-.3 57.4-.4 58.3-2 .9-1.3.7-2.2-.7-3.7-1.9-2.1-2.6-2.1-58.2-2.1-49.8 0-56.4.2-57.8 1.6z"/><path d="M250 775v91.1l13.3-.3 13.2-.3v-68.7c0-37.8.3-68.4.6-68 .3.4 3.4 16.4 6.8 35.7 3.5 19.2 8.9 49.6 12.2 67.5 3.2 17.9 5.9 32.8 5.9 33.2 0 .5 4.5.8 10 .8 9.5 0 10-.1 10.5-2.3.5-2.2 11.1-60.6 20-110.2 2.6-14.3 4.9-26.2 5.1-26.4.2-.2.4 30.9.4 69.3v69.7l13.3-.3 13.2-.3.3-90.8.2-90.7h-18.5c-11.1 0-18.5.4-18.5 1 0 .5-1.8 10.3-3.9 21.7-2.2 11.4-6 32-8.6 45.8-2.6 13.7-6.4 34.4-8.6 45.8-2.1 11.4-3.9 21.3-3.9 21.9 0 4.2-1.7-3.1-5.5-23.8-2.5-13.2-6.5-34.7-9-47.9-2.4-13.2-6.1-33.1-8.2-44.3l-3.6-20.2H250v91zm165.5-35.8c-.3.7-4.6 20.4-9.5 43.8-5 23.4-10.9 50.8-13 60.9-2.2 10.2-4 19.3-4 20.3 0 1.6 1 1.8 8.8 1.8h8.9l2.8-13.8c4.1-20.1 2.5-18.2 15.4-18.2h11l1.1 5.7c.7 3.2 2.2 10.3 3.4 15.8l2.1 10 9.3.3c6.1.2 9.2-.1 9.2-.8 0-.6-1.1-6.1-2.5-12.3-1.3-6.2-4.7-22-7.5-35.2-2.8-13.2-6.2-29.1-7.5-35.3-1.4-6.2-3.9-17.9-5.6-26-1.6-8.1-3.2-15.5-3.5-16.5-.5-1.4-1.8-1.7-9.5-1.7-6.3 0-9.1.4-9.4 1.2zm14.5 55.5c2.2 13.3 4 24.4 4 24.7 0 .3-4.1.6-9.1.6-8.1 0-9-.2-8.5-1.8.2-.9 2.1-11.8 4.1-24.2 3.8-23.1 4.5-26.2 5.1-24.5.2.5 2.2 11.9 4.4 25.2zm41.5-55.5c-.3.7-.4 29.4-.3 63.8l.3 62.5 9.3.3 9.2.3V807h13.7l3.7 12.2c2 6.8 6.1 19.9 9 29.3l5.3 17 9.3.3c7.2.2 9.1 0 8.8-1-4.2-10.8-19.7-62.3-19-62.6.6-.2 2.8-1.6 5-3.2 11.3-8.1 13.3-33.7 3.7-48.2-3.8-5.8-14.5-10.5-26.7-11.8-13.9-1.4-30.7-1.3-31.3.2zm36.7 16.2c5 2.4 7.9 7.3 8.5 14.4 1.4 15-6.4 23.2-21.9 23.2H490v-40.2l7.3.4c4.1.2 8.8 1.1 10.9 2.2zM551 802v64.1l8.8-.3 8.7-.3.5-46.7.5-46.8 8.5 46.8 8.5 46.7 7 .3 7.1.3 8.3-46.3c4.6-25.5 8.8-47 9.2-47.8.5-.8.9 20 .9 46.2V866h18V738h-12.5c-12.1 0-12.5.1-13 2.2-.3 1.3-2.1 11.1-4 21.8-2 10.7-5.6 30.4-8 43.6-2.5 13.3-4.5 24.7-4.5 25.3 0 .6-.4 1.1-.9 1.1-.4 0-1.3-2.8-1.9-6.3-.6-3.4-2.6-14.8-4.6-25.2-1.9-10.5-5.1-27.8-7-38.5-2-10.7-3.8-20.5-4.1-21.8-.5-2.1-.9-2.2-13-2.2H551v64zm105.7-63.4c-.4.4-.7 29.2-.7 64.1V866h19l-.2-63.8-.3-63.7-8.5-.3c-4.7-.1-8.9 0-9.3.4zm29 .1c-.4.3-.7 4.2-.7 8.5v7.8h23v111h18V755h23.1l-.3-8.3-.3-8.2-31.1-.3c-17.1-.1-31.3.1-31.7.5zM758 802v64h50v-14h-32v-44.9l11.3-.3 11.2-.3.3-6.8.3-6.7H776v-41h32v-14h-50v64z"/></svg>