<svg xmlns="http://www.w3.org/2000/svg" width="49.168" height="58.312" viewBox="0 0 49.168 58.312"><defs><clipPath id="a"><path data-name="Rectangle 6475" fill="none" stroke="#378ccc" d="M0 0h48.302v57.287H0z"/></clipPath></defs><g data-name="Groupe 5907"><g data-name="Groupe 5900"><g data-name="Groupe 5899" clip-path="url(#a)" fill="none" stroke="#378ccc" stroke-miterlimit="10" stroke-width="2" transform="translate(0 .511)"><path data-name="Tracé 11631" d="M21.223 4.593l19.858 11.209v24.07L20.262 51.513.362 40.057V15.986z"/><path data-name="Tracé 11632" d="M.362 15.987l19.9 11.754 20.819-11.935"/></g></g><path data-name="Ligne 22" fill="none" stroke="#378ccc" stroke-miterlimit="10" stroke-width="2" d="M20.26 28.252v23.773"/><g data-name="Groupe 5902"><g data-name="Groupe 5901" clip-path="url(#a)" transform="translate(0 .511)"><path data-name="Ligne 23" fill="none" stroke="#378ccc" stroke-miterlimit="10" stroke-width="2" d="M29.061.797l16.037 9.539"/></g></g><path data-name="Tracé 11633" d="M28.779 2.401L29.886.539 27.725.511z" fill="#0049ff" stroke="#378ccc"/><path data-name="Tracé 11634" d="M44.272 11.614l2.165.028-1.058-1.889z" fill="#0049ff" stroke="#378ccc"/><g data-name="Groupe 5904"><g data-name="Groupe 5903" clip-path="url(#a)" transform="translate(0 .511)"><path data-name="Ligne 24" fill="none" stroke="#378ccc" stroke-miterlimit="10" stroke-width="2" d="M47.219 17.364v19.109"/></g></g><path data-name="Tracé 11635" d="M46.137 18.192h2.165l-1.083-1.875z" fill="#0049ff" stroke="#378ccc"/><path data-name="Tracé 11636" d="M46.137 36.666l1.083 1.875 1.083-1.875z" fill="#0049ff" stroke="#378ccc"/><g data-name="Groupe 5906"><g data-name="Groupe 5905" clip-path="url(#a)" transform="translate(0 .511)"><path data-name="Ligne 25" fill="none" stroke="#378ccc" stroke-miterlimit="10" stroke-width="2" d="M39.744 46.695l-16.342 9.791"/></g></g><path data-name="Tracé 11637" d="M38.916 46.44l2.165-.035-1.052 1.892z" fill="#0049ff" stroke="#378ccc"/><path data-name="Tracé 11638" d="M22.066 57.798l2.165-.035-1.113-1.858z" fill="#0049ff" stroke="#378ccc"/></g></svg>