<svg xmlns="http://www.w3.org/2000/svg" width="30.57" height="27.841" viewBox="0 0 30.57 27.841"><defs><clipPath id="a"><path data-name="Rectangle 6031" fill="none" stroke="#565250" stroke-width=".1" d="M0 0h30.57v27.841H0z"/></clipPath></defs><g data-name="Groupe 5579"><g data-name="Groupe 5578" clip-path="url(#a)" opacity=".8"><path data-name="Tracé 10327" d="M26.873 16.425v8.573h-4.967v-8c0-2.008-.719-3.379-2.516-3.379a2.719 2.719 0 0 0-2.55 1.816 3.4 3.4 0 0 0-.165 1.212v8.351h-4.968s.066-13.54 0-14.942h4.968v2.117c-.01.016-.023.033-.032.049h.032v-.049a4.933 4.933 0 0 1 4.478-2.475c3.269 0 5.72 2.137 5.72 6.727zM6.508 2.848a2.589 2.589 0 1 0-.061 5.164h.034a2.59 2.59 0 1 0 .027-5.164zm-2.517 22.15h4.968V10.052H3.991z" fill="none" stroke="#565250" stroke-linecap="round" stroke-linejoin="round" stroke-width=".7"/></g></g></svg>