<svg id="Groupe_5865" data-name="Groupe 5865" xmlns="http://www.w3.org/2000/svg" xmlns:xlink="http://www.w3.org/1999/xlink" width="72.595" height="72.595" viewBox="0 0 72.595 72.595">
  <defs>
    <clipPath id="clip-path">
      <rect id="Rectangle_6461" data-name="Rectangle 6461" width="72.595" height="72.595" fill="#378ccc"/>
    </clipPath>
  </defs>
  <g id="Groupe_5860" data-name="Groupe 5860" transform="translate(0 0)">
    <g id="Groupe_5859" data-name="Groupe 5859" clip-path="url(#clip-path)">
      <path id="Tracé_11549" data-name="Tracé 11549" d="M16.539,31.578h4.7a1.008,1.008,0,1,0,0-2.016h-4.7a1.008,1.008,0,1,0,0,2.016" transform="translate(12.702 24.178)" fill="#378ccc"/>
      <path id="Tracé_11550" data-name="Tracé 11550" d="M21.714,31.578h4.706a1.008,1.008,0,0,0,0-2.016H21.714a1.008,1.008,0,0,0,0,2.016" transform="translate(16.936 24.178)" fill="#378ccc"/>
      <path id="Tracé_11551" data-name="Tracé 11551" d="M10.253,21.863a1.034,1.034,0,0,0,1.007-1.007V16.149a1.008,1.008,0,0,0-2.016,0v4.706a1.034,1.034,0,0,0,1.009,1.007" transform="translate(7.56 12.384)" fill="#378ccc"/>
      <path id="Tracé_11552" data-name="Tracé 11552" d="M31.6,29.562H26.89a1.008,1.008,0,0,0,0,2.016H31.6a1.008,1.008,0,0,0,0-2.016" transform="translate(21.169 24.178)" fill="#378ccc"/>
      <path id="Tracé_11553" data-name="Tracé 11553" d="M9.244,10.5a1.009,1.009,0,1,0,2.018,0V5.8a1.009,1.009,0,1,0-2.018,0Z" transform="translate(7.56 3.916)" fill="#378ccc"/>
      <path id="Tracé_11554" data-name="Tracé 11554" d="M10.253,32.216a1.034,1.034,0,0,0,1.007-1.007V26.5a1.008,1.008,0,0,0-2.016,0v4.706a1.034,1.034,0,0,0,1.009,1.007" transform="translate(7.56 20.852)" fill="#378ccc"/>
      <path id="Tracé_11555" data-name="Tracé 11555" d="M36.774,29.562h-4.7a1.008,1.008,0,1,0,0,2.016h4.7a1.008,1.008,0,1,0,0-2.016" transform="translate(25.403 24.178)" fill="#378ccc"/>
      <path id="Tracé_11556" data-name="Tracé 11556" d="M11.361,31.578h4.706a1.008,1.008,0,0,0,0-2.016H11.361a1.008,1.008,0,0,0,0,2.016" transform="translate(8.468 24.178)" fill="#378ccc"/>
      <path id="Tracé_11557" data-name="Tracé 11557" d="M10.253,27.041a1.034,1.034,0,0,0,1.007-1.009v-4.7a1.008,1.008,0,1,0-2.016,0v4.7a1.034,1.034,0,0,0,1.009,1.009" transform="translate(7.56 16.618)" fill="#378ccc"/>
    </g>
  </g>
  <g id="Groupe_5862" data-name="Groupe 5862" transform="translate(0 0)">
    <g id="Groupe_5861" data-name="Groupe 5861" clip-path="url(#clip-path)">
      <path id="Tracé_11558" data-name="Tracé 11558" d="M72.6,54.734V.959a.5.5,0,0,0-.067-.336c-.135-.267-.269-.469-.538-.538a.749.749,0,0,0-.336-.065H17.881a.515.515,0,0,0-.336.065,1.613,1.613,0,0,0-.336.2L.4,17.091c-.067.069-.2.2-.2.336-.2.069-.2.2-.2.336V71.538a1.034,1.034,0,0,0,1.009,1.007H54.784a.5.5,0,0,0,.334-.067,1.408,1.408,0,0,0,.336-.2l16.8-16.8c.067-.069.2-.2.2-.336a.5.5,0,0,0,.135-.4M17.813,6A1.033,1.033,0,0,0,18.82,4.993V1.968H69.167L54.378,16.756H3.429L16.8,3.378V4.993A1.033,1.033,0,0,0,17.813,6M5.245,67.3a.975.975,0,0,0-1.412,0L2.083,69.051V18.772H16.939a.37.37,0,0,0-.135.336v4.7a1.008,1.008,0,1,0,2.016,0v-4.7a.621.621,0,0,0-.065-.336H53.773V70.529H3.429l1.747-1.747a1.13,1.13,0,0,0,.069-1.48M55.791,18.167,70.577,3.378V53.725h-3.7a1.008,1.008,0,1,0,0,2.016h2.285L55.791,69.117Z" transform="translate(0 0.016)" fill="#378ccc"/>
    </g>
  </g>
  <g id="Groupe_5864" data-name="Groupe 5864" transform="translate(0 0)">
    <g id="Groupe_5863" data-name="Groupe 5863" clip-path="url(#clip-path)">
      <path id="Tracé_11559" data-name="Tracé 11559" d="M4.764,38.548a1.012,1.012,0,0,0,.74-.269L8.8,34.918a1,1,0,1,0-1.412-1.411L4.093,36.868a.973.973,0,0,0,0,1.411.776.776,0,0,0,.671.269" transform="translate(3.1 27.157)" fill="#378ccc"/>
      <path id="Tracé_11560" data-name="Tracé 11560" d="M8.425,34.954a1.012,1.012,0,0,0,.74-.269l3.294-3.361a1.149,1.149,0,0,0,0-1.478.975.975,0,0,0-1.412,0L7.754,33.207a.973.973,0,0,0,0,1.411.824.824,0,0,0,.671.336" transform="translate(6.094 24.163)" fill="#378ccc"/>
    </g>
  </g>
</svg>
