<svg xmlns="http://www.w3.org/2000/svg" width="12.036" height="22.81" viewBox="0 0 12.036 22.81"><defs><clipPath id="a"><path data-name="Rectangle 6304" fill="#504c4b" d="M0 0h12.036v22.81H0z"/></clipPath></defs><g data-name="Groupe 5230"><g data-name="Groupe 5763" transform="rotate(180 6.018 11.405)" clip-path="url(#a)"><path data-name="Tracé 11452" d="M11.987 11.643a.622.622 0 0 0 .028-.143.578.578 0 0 0 .021-.1c0-.024-.012-.045-.014-.069a.654.654 0 0 0-.035-.173.626.626 0 0 0-.137-.2L1.079.184a.628.628 0 0 0-.888.888L5.58 6.459a1032.92 1032.92 0 0 0 4.96 4.944l-.647.627-9.7 9.7a.628.628 0 1 0 .872.9l.016-.016 10.77-10.769a.617.617 0 0 0 .136-.2" fill="#504c4b"/></g></g></svg>