<svg xmlns="http://www.w3.org/2000/svg" width="59.5" height="42.104" viewBox="0 0 59.5 42.104"><defs><clipPath id="a"><path data-name="Rectangle 6037" transform="translate(0 .001)" fill="#fff" d="M0 0h59.5v42.104H0z"/></clipPath></defs><g data-name="Groupe 5590"><g data-name="Groupe 5592" clip-path="url(#a)" opacity=".8"><path data-name="Tracé 10333" d="M50.082 42.1H9.416A9.43 9.43 0 0 1 0 32.681V9.422A9.429 9.429 0 0 1 9.416 0h40.666A9.43 9.43 0 0 1 59.5 9.422v23.259a9.431 9.431 0 0 1-9.418 9.419M9.416 1.5A7.928 7.928 0 0 0 1.5 9.422v23.259A7.928 7.928 0 0 0 9.416 40.6h40.666A7.929 7.929 0 0 0 58 32.681V9.422A7.929 7.929 0 0 0 50.082 1.5zm14.532 30.11a.735.735 0 0 1-.355-.09.747.747 0 0 1-.4-.66V9.017a.75.75 0 0 1 1.163-.626l16.571 10.925a.751.751 0 0 1 0 1.252L24.361 31.486a.754.754 0 0 1-.413.124m.75-21.2v19.058l14.453-9.526z" fill="#fff"/></g></g></svg>