<svg xmlns="http://www.w3.org/2000/svg" width="46.492" height="46.491" viewBox="0 0 46.492 46.491"><defs><clipPath id="a"><path data-name="Rectangle 6485" fill="#378ccc" d="M0 0h46.492v46.492H0z"/></clipPath></defs><g data-name="Groupe 5922"><g data-name="Groupe 5921" clip-path="url(#a)" fill="#378ccc"><path data-name="Tracé 11647" d="M39.683 6.808A23.252 23.252 0 0 0 1.7 31.992a.918.918 0 0 0 1.7-.692A21.42 21.42 0 0 1 38.39 8.1a21.42 21.42 0 0 1-26.112 33.545 2.884 2.884 0 0 1-1.743-2.493 3.446 3.446 0 0 1 1.087-2.826l.907-.906a2.071 2.071 0 0 0 1.937-.55l2.218-2.217a9.8 9.8 0 0 0 12.228-1.309l4.033-4.032.981.981A.915.915 0 1 0 35.22 27l-1.628-1.628-1.185-1.186 6.324-6.324a1.247 1.247 0 0 0-1.764-1.762l-6.324 6.324-3.334-3.333-3.334-3.335L30.3 9.43a1.247 1.247 0 1 0-1.763-1.763l-6.325 6.323-2.812-2.813a.915.915 0 1 0-1.294 1.293l.982.982-4.033 4.033a9.814 9.814 0 0 0-1.309 12.228l-2.219 2.217a2.072 2.072 0 0 0-.419 2.323l-.78.78a5.261 5.261 0 0 0-1.608 4.344 4.647 4.647 0 0 0 2.621 3.839A23.248 23.248 0 0 0 39.683 6.808M16.348 18.777l4.032-4.032 11.272 11.271-4.033 4.034a7.97 7.97 0 0 1-11.271-11.273"/><path data-name="Tracé 11648" d="M25.73 26.575a.915.915 0 0 0 1.294-1.293l-5.909-5.908a.914.914 0 0 0-1.293 1.292z"/><path data-name="Tracé 11649" d="M21.779 29.107a.915.915 0 0 0 1.294-1.293l-4.491-4.489a.914.914 0 0 0-1.293 1.293z"/></g></g></svg>