<svg xmlns="http://www.w3.org/2000/svg" width="34.06" height="23.781" viewBox="0 0 34.06 23.781"><defs><clipPath id="a"><path data-name="Rectangle 6037" fill="#565250" stroke="#707070" stroke-width=".1" d="M0 0h34.06v23.781H0z"/></clipPath></defs><g data-name="Groupe de masques 5592" clip-path="url(#a)"><path data-name="Tracé 10333" d="M25.993 21.171H8.065a4.157 4.157 0 0 1-4.151-4.154V6.763a4.157 4.157 0 0 1 4.151-4.154h17.928a4.157 4.157 0 0 1 4.152 4.154v10.254a4.158 4.158 0 0 1-4.152 4.154M8.065 3.27a3.5 3.5 0 0 0-3.49 3.493v10.254a3.5 3.5 0 0 0 3.49 3.492h17.928a3.5 3.5 0 0 0 3.491-3.493V6.763a3.5 3.5 0 0 0-3.491-3.493zm6.406 13.274a.324.324 0 0 1-.157-.04.329.329 0 0 1-.174-.291V6.584a.331.331 0 0 1 .514-.275l7.3 4.816a.331.331 0 0 1 0 .552l-7.3 4.813a.332.332 0 0 1-.182.055m.331-9.346v8.4l6.372-4.2z" fill="#565250" stroke="#565250" stroke-width=".2"/></g></svg>