<svg xmlns="http://www.w3.org/2000/svg" width="96.059" height="61.4" viewBox="0 0 96.059 61.4"><defs><clipPath id="a"><path data-name="Rectangle 6501" fill="#378ccc" d="M0 0h96.059v61.4H0z"/></clipPath></defs><g data-name="Groupe 6480"><g data-name="Groupe 6479" clip-path="url(#a)" fill="#378ccc"><path data-name="Tracé 13408" d="M80.379 0H15.68L0 61.4h96.06zM17.241 2.009h19.174l-.683 8.222a1 1 0 0 0 .917 1.084.8.8 0 0 0 .084 0 1 1 0 0 0 1-.921l.7-8.389H57.01l.7 8.389a1 1 0 0 0 1 .921.791.791 0 0 0 .084 0 1 1 0 0 0 .918-1.084l-.683-8.222h19.8l14.645 57.382H64.037a.987.987 0 0 0 .067-.432l-.465-5.777a1.003 1.003 0 1 0-2 .161l.461 5.777a.978.978 0 0 0 .075.271H33.116a.986.986 0 0 0 .056-.2l.465-5.777a1.003 1.003 0 1 0-2-.161l-.465 5.777a.981.981 0 0 0 .043.365H2.587z"/><path data-name="Tracé 13409" d="M35.922 15.891a.848.848 0 0 0 .087 0 1 1 0 0 0 1-.918l.043-.5a1.004 1.004 0 1 0-2-.173l-.043.5a1 1 0 0 0 .914 1.087"/><path data-name="Tracé 13410" d="M34.584 31.678a.848.848 0 0 0 .087 0 1 1 0 0 0 1-.918l.083-.962a1 1 0 0 0-.915-1.087.993.993 0 0 0-1.091.915l-.082.962a1 1 0 0 0 .914 1.087"/><path data-name="Tracé 13411" d="M34.998 26.871a.847.847 0 0 0 .087 0 1 1 0 0 0 1-.918l.083-.961a1.004 1.004 0 0 0-2-.173l-.082.961A1 1 0 0 0 35 26.867"/><path data-name="Tracé 13412" d="M34.17 36.484a.83.83 0 0 0 .086 0 1 1 0 0 0 1-.918l.083-.962a1 1 0 0 0-.915-1.087.99.99 0 0 0-1.087.914l-.082.962a1 1 0 0 0 .915 1.087"/><path data-name="Tracé 13413" d="M33.755 41.291a.846.846 0 0 0 .087 0 1 1 0 0 0 1-.918l.083-.962a1 1 0 0 0-.915-1.087.992.992 0 0 0-1.087.914l-.082.962a1 1 0 0 0 .914 1.087"/><path data-name="Tracé 13414" d="M33.096 49.995a.848.848 0 0 0 .087 0 1 1 0 0 0 1-.918l.043-.5a1 1 0 0 0-.914-1.087.991.991 0 0 0-1.087.914l-.043.5a1 1 0 0 0 .914 1.087"/><path data-name="Tracé 13415" d="M59.193 15.895a.848.848 0 0 0 .087 0 1 1 0 0 0 .914-1.087l-.043-.5a1.004 1.004 0 1 0-2 .173l.043.5a1 1 0 0 0 1 .918"/><path data-name="Tracé 13416" d="M61.185 38.328a1 1 0 0 0-.914 1.087l.082.962a1 1 0 0 0 1 .918.848.848 0 0 0 .087 0 1 1 0 0 0 .915-1.087l-.082-.962a1 1 0 0 0-1.088-.914"/><path data-name="Tracé 13417" d="M60.77 33.521a1 1 0 0 0-.914 1.087l.082.962a1 1 0 0 0 1 .918.848.848 0 0 0 .087 0 1 1 0 0 0 .915-1.087l-.083-.962a1 1 0 0 0-1.087-.914"/><path data-name="Tracé 13418" d="M60.361 28.715a1 1 0 0 0-.914 1.087l.082.962a1 1 0 0 0 1 .918.849.849 0 0 0 .087 0 1 1 0 0 0 .915-1.087l-.083-.962a1 1 0 0 0-1.087-.914"/><path data-name="Tracé 13419" d="M59.028 24.996l.083.961a1 1 0 0 0 1 .918.874.874 0 0 0 .087 0 1 1 0 0 0 .914-1.087l-.083-.961a1.004 1.004 0 0 0-2 .173"/><path data-name="Tracé 13420" d="M60.975 48.582l.043.5a1 1 0 0 0 1 .918c.028 0 .058 0 .088 0a1 1 0 0 0 .914-1.087l-.044-.5a.99.99 0 0 0-1.086-.914 1 1 0 0 0-.914 1.087"/></g></g></svg>