<svg xmlns="http://www.w3.org/2000/svg" width="24.732" height="32.032" viewBox="0 0 24.732 32.032"><defs><clipPath id="a"><path data-name="Rectangle 6085" fill="#fff" stroke="#fff" stroke-width=".2" d="M-4-3.635h20v29H-4z"/></clipPath></defs><g data-name="Groupe 5851"><g data-name="Groupe 5622" transform="rotate(-10.02 38.55 -22.888)" clip-path="url(#a)"><path data-name="Tracé 11275" d="M1.734 21.364h8.775a1.7 1.7 0 0 0 1.688-1.716V1.797A1.7 1.7 0 0 0 10.509.081H1.734A1.7 1.7 0 0 0 .046 1.797v17.851a1.7 1.7 0 0 0 1.688 1.716m8.775-.687H1.734a1.023 1.023 0 0 1-1.013-1.03v-1.372h10.8v1.373a1.023 1.023 0 0 1-1.013 1.03M.721 3.857h10.8v13.731H.721zM1.734.768h8.775a1.023 1.023 0 0 1 1.013 1.03v1.373H.721V1.797A1.023 1.023 0 0 1 1.734.768"/><path data-name="Rectangle 6084" fill="#fff" stroke="#fff" stroke-width=".2" d="M5 19.365h2v1H5z"/></g></g></svg>