<svg xmlns="http://www.w3.org/2000/svg" viewBox="0 0 363.2 385.3"><path d="M294.2 247.5c-22.2 0-41.9 10.6-54.6 26.9l-105.8-59.1c2.5-7.1 3.8-14.8 3.8-22.7 0-8-1.4-15.6-3.9-22.8l105.8-59c12.6 16.4 32.4 27 54.6 27 37.9 0 68.9-30.9 68.9-68.9S332.2 0 294.2 0s-68.9 30.9-68.9 68.9c0 8 1.4 15.7 3.9 22.8l-105.7 59c-12.6-16.5-32.4-27-54.6-27C31 123.7 0 154.6 0 192.6s31 68.9 69 68.9c22.2 0 42.1-10.6 54.7-27.1l105.8 59.1c-2.6 7.2-4 15-4 23 0 37.9 30.9 68.9 68.9 68.9s68.9-30.9 68.9-68.9-31.1-69-69.1-69zm0-225.8c26.1 0 47.3 21.2 47.3 47.3 0 26.1-21.2 47.3-47.3 47.3-26-.1-47.2-21.3-47.2-47.3 0-26.1 21.2-47.3 47.2-47.3zM69 239.8c-26.1 0-47.3-21.2-47.3-47.3 0-26.1 21.2-47.3 47.3-47.3 26.1 0 47.3 21.2 47.3 47.3-.1 26.1-21.3 47.3-47.3 47.3zm225.2 123.8c-26.1 0-47.3-21.2-47.3-47.3 0-26.1 21.2-47.3 47.3-47.3 26.1 0 47.3 21.2 47.3 47.3 0 26.1-21.2 47.3-47.3 47.3zm0 0"/></svg>