<svg xmlns="http://www.w3.org/2000/svg" width="49.931" height="44" viewBox="0 0 49.931 44"><defs><clipPath id="a"><path data-name="Rectangle 6483" fill="#378ccc" d="M0 0h49.931v44H0z"/></clipPath></defs><g data-name="Groupe 5917"><path data-name="Tracé 11644" d="M21.11 15.967v3.882l-2.745-2.744-.226-4.428zm-4 2.4l2.745 2.745h-3.882l-3.292-2.971zm0 7.271l-4.429.226 3.292-2.971h3.882zm4 2.4l-2.971 3.292.226-4.429 2.745-2.745zm1.781 15.961v-4.693l.053.084v-3.366l-.053-.085v-5.247l.053.059v-2.658l-.053-.06v-3.882l.053.052v-4.404l-.053.052v-3.882l.053-.06v-2.658l-.053.058V8.062l.053-.085V4.611l-.053.085V-.001h-1.782v4.7L18.671.791l-1.513.943 3.951 6.331v5.243l-5.006-5.545.381 7.461-3.711-3.711-1.684-7.27-1.736.4 1.04 4.489-3.32-3.319-1.26 1.259 3.32 3.319-4.489-1.038-.4 1.735 7.271 1.684 3.711 3.711-7.461-.381 5.545 5.006H8.062l-6.332-3.95-.943 1.512 3.91 2.439h-4.7v1.782h4.7l-3.91 2.438.943 1.512 6.332-3.95h5.248l-5.545 5.007 7.461-.382-3.711 3.711-7.271 1.684.4 1.736 4.493-1.04-3.32 3.319 1.26 1.26 3.32-3.32-1.04 4.49 1.736.4 1.684-7.271 3.711-3.71-.381 7.461 5.006-5.545v5.249l-3.951 6.331 1.51.943 2.438-3.908v4.693z" fill="#378ccc"/><g data-name="Groupe 5918"><g data-name="Groupe 5917" clip-path="url(#a)" transform="rotate(180 24.965 22)"><path data-name="Tracé 11645" d="M22.838 35.266c-.289.019-.579.032-.872.032a13.263 13.263 0 0 1 0-26.526c.293 0 .584.013.872.032V7.08h-.011V.07H21.1v7.01a14.978 14.978 0 0 0-2.178.284L17.113.597l-1.665.447 1.813 6.765a14.856 14.856 0 0 0-2.026.842L11.728 2.58l-1.493.862 3.507 6.074A15.168 15.168 0 0 0 12 10.853L7.045 5.896 5.826 7.114l4.957 4.957a15.021 15.021 0 0 0-1.338 1.742L3.37 10.306l-.861 1.493 6.073 3.505a14.891 14.891 0 0 0-.842 2.026L.974 15.517.528 17.18l6.761 1.811a14.97 14.97 0 0 0-.284 2.179H0v1.723h7a15.069 15.069 0 0 0 .284 2.179L.528 26.886l.445 1.665 6.765-1.813a14.967 14.967 0 0 0 .842 2.027L2.509 32.27l.861 1.493 6.074-3.507a15.03 15.03 0 0 0 1.339 1.741l-4.957 4.959 1.22 1.218L12 33.217a15.127 15.127 0 0 0 1.741 1.338l-3.505 6.075 1.493.862 3.506-6.073a14.918 14.918 0 0 0 2.026.842l-1.812 6.766 1.665.447 1.811-6.762a14.946 14.946 0 0 0 2.178.284V44h1.724v-7.006h.011z" fill="#378ccc"/></g></g></g></svg>