<svg xmlns="http://www.w3.org/2000/svg" viewBox="0 0 103.15 83.829"><path d="M103.15 9.923a42.323 42.323 0 0 1-12.154 3.333c4.369-2.619 7.726-6.766 9.306-11.708a42.393 42.393 0 0 1-13.438 5.135A21.141 21.141 0 0 0 71.416 0C57.757 0 47.714 12.748 50.802 25.985c-17.589-.882-33.183-9.308-43.619-22.111-5.546 9.509-2.876 21.955 6.549 28.254a21.066 21.066 0 0 1-9.586-2.647c-.229 9.805 6.798 18.973 16.974 21.018-2.979.81-6.241.996-9.557.362 2.692 8.408 10.508 14.525 19.77 14.696C22.434 72.53 11.229 75.644 0 74.32c9.365 6.004 20.49 9.509 32.441 9.509 39.289 0 61.488-33.187 60.15-62.951A42.948 42.948 0 0 0 103.15 9.923z"/></svg>