<svg xmlns="http://www.w3.org/2000/svg" width="51.001" height="48.792" viewBox="0 0 51.001 48.792"><defs><clipPath id="a"><path data-name="Rectangle 6031" fill="none" stroke="#fff" d="M0 0h51.001v48.792H0z"/></clipPath></defs><g data-name="Groupe 5579"><g data-name="Groupe 5578" clip-path="url(#a)" opacity=".8"><path data-name="Tracé 10327" d="M50.358 48.899H39.703a.75.75 0 0 1-.75-.75V31a8.6 8.6 0 0 0-1.123-4.817 3.937 3.937 0 0 0-3.525-1.681 5.125 5.125 0 0 0-4.774 3.427 6.5 6.5 0 0 0-.3 2.319v17.9a.75.75 0 0 1-.75.75H17.826a.75.75 0 0 1-.75-.754c0-.29.141-29.059 0-32.014a.75.75 0 0 1 .749-.785h10.658a.75.75 0 0 1 .75.75v2.292a11.12 11.12 0 0 1 8.86-3.794 12.27 12.27 0 0 1 9.316 3.763 13 13 0 0 1 2.735 4.77 21.141 21.141 0 0 1 .969 6.644v18.379a.75.75 0 0 1-.755.75zm-9.905-1.5h9.155V29.768c0-8.691-4.2-13.676-11.52-13.677a9.789 9.789 0 0 0-8.868 4.789.75.75 0 0 1-.737.611h-.07a.75.75 0 0 1-.681-1.065v-3.581h-9.139c.095 4.971 0 26.175-.018 30.553h9.158v-17.15a7.724 7.724 0 0 1 .409-2.884 7.4 7.4 0 0 1 2.139-2.963 6.209 6.209 0 0 1 4.024-1.4 5.4 5.4 0 0 1 4.764 2.336 10.012 10.012 0 0 1 1.383 5.662zm-28.523 1.5H1.275a.75.75 0 0 1-.75-.75V16.093a.75.75 0 0 1 .75-.75H11.93a.75.75 0 0 1 .75.75v32.055a.75.75 0 0 1-.75.75zm-9.905-1.5h9.155V16.846H2.025zm4.58-34.928h-.072a6.8 6.8 0 0 1-4.809-1.83A6.163 6.163 0 0 1-.107 6.179a6.09 6.09 0 0 1 1.884-4.493A6.975 6.975 0 0 1 6.674-.107a6.791 6.791 0 0 1 4.842 1.8 6.339 6.339 0 0 1 1.866 4.47q0 .008 0 .017a6.114 6.114 0 0 1-1.851 4.466 6.939 6.939 0 0 1-4.926 1.825zm.069-11.078c-3.109 0-5.281 1.968-5.281 4.786s2.113 4.792 5.14 4.792h.072c3.1 0 5.273-1.966 5.278-4.783-.068-2.868-2.16-4.795-5.209-4.795z" fill="#fff"/></g></g></svg>