<svg data-name="Groupe 5865" xmlns="http://www.w3.org/2000/svg" width="72.595" height="72.595" viewBox="0 0 72.595 72.595"><defs><clipPath id="a"><path data-name="Rectangle 6461" fill="#378ccc" d="M0 0h72.595v72.595H0z"/></clipPath></defs><g data-name="Groupe 5860"><g data-name="Groupe 5859" clip-path="url(#a)" fill="#378ccc"><path data-name="Tracé 11549" d="M29.241 55.756h4.7a1.008 1.008 0 1 0 0-2.016h-4.7a1.008 1.008 0 1 0 0 2.016"/><path data-name="Tracé 11550" d="M38.65 55.756h4.706a1.008 1.008 0 0 0 0-2.016H38.65a1.008 1.008 0 0 0 0 2.016"/><path data-name="Tracé 11551" d="M17.813 34.247a1.034 1.034 0 0 0 1.007-1.007v-4.707a1.008 1.008 0 0 0-2.016 0v4.706a1.034 1.034 0 0 0 1.009 1.007"/><path data-name="Tracé 11552" d="M52.769 53.74h-4.71a1.008 1.008 0 0 0 0 2.016h4.71a1.008 1.008 0 0 0 0-2.016"/><path data-name="Tracé 11553" d="M16.804 14.416a1.009 1.009 0 1 0 2.018 0v-4.7a1.009 1.009 0 1 0-2.018 0z"/><path data-name="Tracé 11554" d="M17.813 53.068a1.034 1.034 0 0 0 1.007-1.007v-4.709a1.008 1.008 0 0 0-2.016 0v4.706a1.034 1.034 0 0 0 1.009 1.007"/><path data-name="Tracé 11555" d="M62.177 53.74h-4.7a1.008 1.008 0 1 0 0 2.016h4.7a1.008 1.008 0 1 0 0-2.016"/><path data-name="Tracé 11556" d="M19.829 55.756h4.706a1.008 1.008 0 0 0 0-2.016h-4.706a1.008 1.008 0 0 0 0 2.016"/><path data-name="Tracé 11557" d="M17.813 43.659a1.034 1.034 0 0 0 1.007-1.009v-4.7a1.008 1.008 0 1 0-2.016 0v4.7a1.034 1.034 0 0 0 1.009 1.009"/></g></g><g data-name="Groupe 5862"><g data-name="Groupe 5861" clip-path="url(#a)"><path data-name="Tracé 11558" d="M72.6 54.75V.975a.5.5 0 0 0-.067-.336c-.135-.267-.269-.469-.538-.538a.749.749 0 0 0-.336-.065H17.881a.515.515 0 0 0-.336.065 1.613 1.613 0 0 0-.336.2L.4 17.107c-.067.069-.2.2-.2.336-.2.069-.2.2-.2.336v53.775a1.034 1.034 0 0 0 1.009 1.007h53.775a.5.5 0 0 0 .334-.067 1.408 1.408 0 0 0 .336-.2l16.8-16.8c.067-.069.2-.2.2-.336a.5.5 0 0 0 .135-.4M17.813 6.016a1.033 1.033 0 0 0 1.007-1.007V1.984h50.347L54.378 16.772H3.429L16.8 3.394v1.615a1.033 1.033 0 0 0 1.013 1.007m-12.568 61.3a.975.975 0 0 0-1.412 0l-1.75 1.751V18.788h14.856a.37.37 0 0 0-.135.336v4.7a1.008 1.008 0 1 0 2.016 0v-4.7a.621.621 0 0 0-.065-.336h35.018v51.757H3.429l1.747-1.747a1.13 1.13 0 0 0 .069-1.48m50.546-49.135L70.577 3.394v50.347h-3.7a1.008 1.008 0 1 0 0 2.016h2.285L55.791 69.133z" fill="#378ccc"/></g></g><g data-name="Groupe 5864"><g data-name="Groupe 5863" clip-path="url(#a)" fill="#378ccc"><path data-name="Tracé 11559" d="M7.864 65.705a1.012 1.012 0 0 0 .74-.269l3.296-3.361a1 1 0 1 0-1.412-1.411l-3.295 3.361a.973.973 0 0 0 0 1.411.776.776 0 0 0 .671.269"/><path data-name="Tracé 11560" d="M14.519 59.117a1.012 1.012 0 0 0 .74-.269l3.294-3.361a1.149 1.149 0 0 0 0-1.478.975.975 0 0 0-1.412 0l-3.293 3.361a.973.973 0 0 0 0 1.411.824.824 0 0 0 .671.336"/></g></g></svg>