<svg data-name="Groupe 5920" xmlns="http://www.w3.org/2000/svg" width="70.92" height="40.979" viewBox="0 0 70.92 40.979"><defs><clipPath id="a"><path data-name="Rectangle 6484" fill="none" stroke="#378ccc" stroke-width=".5" d="M0 0h70.92v40.979H0z"/></clipPath></defs><g data-name="Groupe 5919" clip-path="url(#a)"><path data-name="Tracé 11646" d="M70.908 14.853c0-.009-.006-.018-.008-.027a.435.435 0 0 0-.025-.064l-.015-.029a.43.43 0 0 0-.04-.057c-.006-.007-.011-.014-.017-.021a.425.425 0 0 0-.074-.064h0a.43.43 0 0 0-.07-.038l-7.5-3.106a.471.471 0 0 0-.053-.022l-14-5.8a.431.431 0 0 0-.456-.189L35.611.033a.441.441 0 0 0-.081-.025.4.4 0 0 0-.048 0c-.012 0-.023 0-.035 0a.437.437 0 0 0-.061.006h-.023a.434.434 0 0 0-.084.025L.267 14.551a.437.437 0 0 0-.07.038h0a.421.421 0 0 0-.075.065l-.016.02a.443.443 0 0 0-.041.058l-.015.028a.422.422 0 0 0-.025.064c0 .009-.006.017-.008.026a.429.429 0 0 0-.012.1H0v11.108a.432.432 0 0 0 .266.4l4.344 1.806c.008 0 .017 0 .025.007a.4.4 0 0 0 .044.012.4.4 0 0 0 .071.01c.009 0 .018 0 .027 0h.057a.433.433 0 0 0 .067-.015l.03-.009h.013l7.113-2.974a.43.43 0 0 0 .235-.24l2.928 1.209v6.1a.432.432 0 0 0 .267.4l4.577 1.895c.008 0 .016 0 .024.006a.452.452 0 0 0 .044.012.421.421 0 0 0 .071.011c.009 0 .018 0 .027 0h.056a.418.418 0 0 0 .07-.016l.027-.008h.013l7.11-2.964a.43.43 0 0 0 .244-.266l2.92 1.206v6.1a.432.432 0 0 0 .266.4l4.344 1.808.029.008.027.008a.44.44 0 0 0 .111.016.434.434 0 0 0 .11-.016l.028-.008c.009 0 .018 0 .027-.008l4.373-1.808a.432.432 0 0 0 .267-.4v-6.1l2.92-1.206a.43.43 0 0 0 .244.266l7.114 2.944h.013l.029.009a.433.433 0 0 0 .067.015h.056c.009 0 .017 0 .026 0a.43.43 0 0 0 .072-.011l.043-.012c.008 0 .016 0 .024-.007l4.548-1.895a.432.432 0 0 0 .266-.4v-6.1l2.926-1.189a.431.431 0 0 0 .234.237l7.143 2.974h.013l.03.009a.429.429 0 0 0 .067.015h.057c.009 0 .018 0 .027 0a.435.435 0 0 0 .071-.01.378.378 0 0 0 .044-.012c.008 0 .016 0 .024-.007l4.344-1.807a.432.432 0 0 0 .266-.4V14.95h0a.438.438 0 0 0-.012-.1M35.445 28.972l-6.4-2.648L62.962 12.3l6.4 2.65zM1.561 14.95L35.445.9 40.503 3 6.607 17.038zM41.632 3.463L47.508 5.9 13.616 19.939l-5.879-2.433zm7 2.9l5.518 2.286-33.922 14.026-5.483-2.269zm6.642 2.752l6.554 2.715-33.912 14.026-6.558-2.714zM5.208 27.216v-5.09l6.126 2.529zM20.659 33.6v-5.089l6.159 2.543zm10.607-1.647l-10.874-4.49a.432.432 0 0 0-.6.4V33.6l-3.713-1.537v-6.1a.432.432 0 0 0-.267-.4L4.941 21.082a.432.432 0 0 0-.6.4v5.737L.864 25.77V15.6l5.458 2.258a.426.426 0 0 0 .2.084l28.492 11.787V39.9l-3.48-1.448v-6.1a.432.432 0 0 0-.267-.4M50.261 33.6L44.1 31.054l6.159-2.543zm15.451-6.386l-6.149-2.56 6.149-2.532zm4.344-1.448l-3.48 1.448v-5.733a.432.432 0 0 0-.6-.4l-10.9 4.489a.432.432 0 0 0-.268.4v6.1l-3.683 1.53v-5.735a.432.432 0 0 0-.6-.4l-10.874 4.49a.432.432 0 0 0-.267.4v6.1L35.877 39.9V29.729L70.056 15.6z" stroke="#378ccc" stroke-width=".5"/></g></svg>