<svg xmlns="http://www.w3.org/2000/svg" width="38.284" height="36.322" viewBox="0 0 38.284 36.322"><defs><clipPath id="a"><path data-name="Rectangle 5925" fill="#504c4b" d="M0 0h38.284v36.322H0z"/></clipPath></defs><g data-name="FLECHE BLC"><g data-name="Groupe 5780"><g data-name="Groupe 5279" clip-path="url(#a)"><path data-name="Tracé 2773" d="M38.207 18.546a1.023 1.023 0 0 0 .045-.228.921.921 0 0 0 .033-.156c0-.039-.019-.072-.022-.11a1.066 1.066 0 0 0-.056-.276.992.992 0 0 0-.218-.322L20.831.293a1 1 0 1 0-1.415 1.414L28 10.288c3.479 3.48 5.587 5.588 6.9 6.874H1a1 1 0 0 0 0 2h33.87L19.417 34.616a1 1 0 1 0 1.414 1.414L37.99 18.869a1 1 0 0 0 .217-.323" fill="#504c4b"/></g></g></g></svg>