<svg xmlns="http://www.w3.org/2000/svg" width="288.402" height="282.862" viewBox="-460.729 249.569 288.402 282.862"><path d="M-315.538 410.478c-26.771-19.523-33.313-30.558-7.761-50.312 14.396-11.133 24.485-25.973 24.485-44.295 0-19.961-8.162-38.071-23.51-46.864h21.755l18.521-19.438s-69.817 0-82.879 0c-51.736 0-77.105 31.01-77.105 65.123 0 34.857 23.915 62.313 70.615 62.313-7.24 14.617-4.332 28.117 7.514 37.771-79.759 0-96.826 34.998-96.826 61.957 0 34.935 40.154 55.698 88.306 55.698 65.835.002 92.004-34.887 92.004-63.548 0-23.363-8.726-38.628-35.119-58.405zm-95.324-96.307c-3.858-29.341 11.122-51.789 33.458-51.124 22.329.676 41.44 24.737 45.294 54.07 3.853 29.338-8.999 48.216-31.327 47.552-22.34-.673-43.569-21.165-47.425-50.498zm38.672 202.735c-33.281 0-57.312-21.063-57.312-46.375 0-24.8 28.202-46.195 61.479-45.829 36.928 0 58.938 22.996 58.938 47.122-.001 25.311-20.558 45.082-63.105 45.082zm199.863-225.28h-38.235v-38.233h-19.118v38.233h-38.233v19.117h38.233v38.235h19.117v-38.235h38.235z"/></svg>