<svg xmlns="http://www.w3.org/2000/svg" width="32.739" height="32.487" viewBox="0 0 32.739 32.487"><defs><clipPath id="a"><path data-name="Rectangle 6457" fill="#fff" stroke="#fff" stroke-width=".2" d="M0 0h28.308v27.996H0z"/></clipPath></defs><g data-name="Groupe 5818"><g data-name="Groupe 5817" transform="matrix(.985 -.174 .174 .985 0 4.916)" clip-path="url(#a)" fill="#fff" stroke="#fff" stroke-width=".2"><path data-name="Tracé 11541" d="M11.174 19.189h-6.21a.453.453 0 1 0 0 .905h6.21a.453.453 0 0 0 0-.905"/><path data-name="Tracé 11542" d="M4.964 16.709h8.469a.453.453 0 0 0 0-.905H4.964a.453.453 0 0 0 0 .905"/><path data-name="Tracé 11543" d="M4.964 13.321h12.422a.453.453 0 0 0 0-.905H4.964a.453.453 0 0 0 0 .905"/><path data-name="Tracé 11544" d="M4.964 9.933h12.422a.453.453 0 0 0 0-.905H4.964a.453.453 0 0 0 0 .905"/><path data-name="Tracé 11545" d="M27.86 10.705L26.324 9.17a1.572 1.572 0 0 0-2.167 0l-1.536 1.535-.272.272V6.094c0-.01 0-.018-.005-.027a.424.424 0 0 0-.024-.119.347.347 0 0 0-.015-.042.448.448 0 0 0-.086-.129L16.573.131a.456.456 0 0 0-.128-.087L16.4.029a.466.466 0 0 0-.118-.024C16.275 0 16.267 0 16.257 0H2.706A2.709 2.709 0 0 0 0 2.706V25.29A2.709 2.709 0 0 0 2.706 28h16.937a2.71 2.71 0 0 0 2.706-2.706v-6.91l3.975-3.975 1.536-1.535a1.536 1.536 0 0 0 0-2.168m-7.037-5.059H16.7V1.526zm.632 19.643a1.814 1.814 0 0 1-1.812 1.81H2.706a1.814 1.814 0 0 1-1.812-1.81V2.706A1.813 1.813 0 0 1 2.706.894h13.1v5.2a.448.448 0 0 0 .447.447h5.2v5.33l-6.961 6.961h0a.436.436 0 0 0-.1.178c0 .007-.009.012-.011.019l-1.124 4.2a.433.433 0 0 0 .3.536.475.475 0 0 0 .057.011.3.3 0 0 0 .194 0L18 22.652c.007 0 .012-.009.019-.011a.436.436 0 0 0 .178-.1h0l3.258-3.258zm-4.438-3.3l-2.7.723.725-2.7zm4.569-4.106l-3.706 3.705-2.439-2.439 6.777-6.777.719-.719 2.439 2.439zm5.642-5.641l-1.22 1.219-2.439-2.439 1.22-1.223a.658.658 0 0 1 .9 0l1.536 1.535a.641.641 0 0 1 0 .9"/></g></g></svg>