<svg xmlns="http://www.w3.org/2000/svg" width="16.284" height="16.322" viewBox="0 0 16.284 16.322"><defs><clipPath id="a"><path data-name="Rectangle 5925" fill="#fff" d="M0 0h16.284v16.322H0z"/></clipPath></defs><g data-name="Groupe 5780"><g data-name="Groupe 5279" transform="rotate(180 8.142 8.161)" clip-path="url(#a)"><path data-name="Tracé 2773" d="M16.251 8.334a.483.483 0 0 0 .019-.1.434.434 0 0 0 .014-.07c0-.018-.008-.032-.009-.049a.5.5 0 0 0-.024-.124.448.448 0 0 0-.093-.145L8.86.131a.41.41 0 0 0-.6 0 .468.468 0 0 0 0 .635l3.65 3.856c1.48 1.564 2.376 2.511 2.934 3.089H.425a.45.45 0 0 0 0 .9h14.407l-6.573 6.944a.467.467 0 0 0 0 .635.409.409 0 0 0 .6 0l7.3-7.712a.453.453 0 0 0 .092-.145" fill="#fff"/></g></g></svg>