<svg xmlns="http://www.w3.org/2000/svg" viewBox="0 0 100 100"><path d="M95.7 44.8c-.9-1.1-2.3-2.8-4.1-4.7l3.5-6.4c.8-1.4.2-3.2-1.2-4s-3.2-.2-4 1.2l-2.7 5c-2.2-1.9-4.7-3.8-7.6-5.7l3.4-8.8c.6-1.5-.2-3.2-1.7-3.8s-3.2.2-3.8 1.7l-3.1 8c-2.5-1.3-5.3-2.4-8.2-3.3l2.2-10.6c.3-1.6-.7-3.1-2.3-3.5-1.6-.3-3.1.7-3.5 2.3l-2.2 10.4c-2.4-.5-4.9-.8-7.6-1V9.5c0-1.6-1.3-2.9-2.9-2.9S47 7.9 47 9.5v12.1c-2.6.1-5.2.5-7.6.9l-2.1-10.3c-.3-1.6-1.9-2.6-3.4-2.3-1.6.3-2.6 1.9-2.3 3.5L33.8 24c-2.9.9-5.7 2-8.2 3.3l-3.1-7.9c-.6-1.5-2.3-2.2-3.8-1.7-1.5.6-2.2 2.3-1.7 3.8l3.4 8.7C17.5 32 15 34 12.8 35.8l-2.6-4.9c-.8-1.4-2.5-1.9-4-1.2-1.4.8-1.9 2.5-1.2 4l3.4 6.2c-1.9 2-3.4 3.7-4.3 4.9-2.4 3.1-2.4 7.4 0 10.5 4.2 5.4 19.7 23 45 23.3.2 0 .5 0 .7 0s.5 0 .7 0c25.3-.3 40.8-17.9 45-23.3 2.6-3.1 2.6-7.4.2-10.5zM8.9 51.7c-.8-1-.8-2.4 0-3.3 2.4-3.2 8.6-10.2 18.1-15.3-3.5 4.7-5.6 10.6-5.6 16.9s2.1 12.2 5.6 16.9c-9.5-5-15.6-12-18.1-15.2zm41.8 21.1c-.2 0-.5 0-.7 0s-.5 0-.7 0c-12.2-.4-22-10.4-22-22.7S37 27.8 49.2 27.4c.3 0 .6 0 .8 0s.6 0 .8 0c12.2.4 21.9 10.4 21.9 22.7s-9.8 22.3-22 22.7zm40.4-21.1C88.7 54.9 82.5 61.9 73 67c3.5-4.7 5.6-10.6 5.6-16.9S76.5 37.9 73 33.2c9.5 5.1 15.7 12.1 18.1 15.3.7.9.7 2.2 0 3.2z"/><path d="M50 36c-1.9 0-3.7.4-5.4 1.1 1.7.9 2.8 2.8 2.8 4.8 0 3.1-2.5 5.5-5.5 5.5-2.1 0-3.9-1.1-4.8-2.8-.7 1.7-1.1 3.5-1.1 5.4 0 7.7 6.3 14 14 14s14-6.3 14-14-6.3-14-14-14z"/></svg>