<svg xmlns="http://www.w3.org/2000/svg" viewBox="0 0 100 100"><path d="M98 62.9l-4.6-6.2c1.3-1 2.3-1.9 2.9-2.6 1.3-1.2 1.3-3.1 0-4.2-1.3-1.2-3.2-1.2-4.4 0C88 53.6 73.6 65.5 50 65.5s-38-12-41.9-15.6c-1.3-1.2-3.2-1.2-4.4 0-1.3 1.2-1.3 3.1 0 4.2.6.6 1.6 1.5 2.8 2.5l-4.7 6.3c-1 1.4-.6 3.2.7 4.2.5.4 1.1.6 1.8.6.9 0 2-.4 2.6-1.3l4.6-6.1c2.1 1.4 4.6 2.9 7.5 4.3l-4.4 8.1c-.8 1.5-.2 3.3 1.4 4 .4.2.9.3 1.5.3 1.1 0 2.2-.6 2.8-1.6l4.5-8.4c2.5 1 5.2 1.8 8.3 2.5l-2.7 9.6c-.4 1.6.5 3.2 2.2 3.7.3.1.5.1.8.1 1.4 0 2.6-.9 3-2.2l2.8-10c2.4.4 5 .6 7.6.7v11c0 1.6 1.4 3 3.1 3 1.8 0 3.1-1.4 3.1-3v-11c2.6-.1 5.2-.4 7.6-.7l2.8 10c.4 1.3 1.7 2.2 3 2.2.3 0 .5 0 .8-.1 1.7-.4 2.6-2.1 2.2-3.7l-2.7-9.6c2.9-.7 5.7-1.6 8.3-2.5l4.4 8.3c.5 1 1.7 1.6 2.8 1.6.5 0 .9-.1 1.5-.3 1.6-.8 2.2-2.6 1.4-4l-4.3-8c2.9-1.4 5.4-2.8 7.5-4.2l4.5 6c.6.8 1.6 1.3 2.5 1.3.6 0 1.3-.2 1.8-.6 1.5-1 1.8-2.9.9-4.2z"/></svg>