<?xml version="1.0" encoding="utf-8"?><svg xmlns="http://www.w3.org/2000/svg" xmlns:xlink="http://www.w3.org/1999/xlink"><symbol viewBox="0 0 36.873 21.866" id="icon-close" xmlns="http://www.w3.org/2000/svg"><g fill="#fff"><path data-name="Rectangle 8" d="M.5 0l36.373 21-.5.866L0 .866z"/><path data-name="Rectangle 6511" d="M0 21L36.373 0l.5.866-36.373 21z"/></g></symbol><symbol viewBox="0 0 100 100" id="icon-eye" xmlns="http://www.w3.org/2000/svg"><path d="M95.7 44.8c-.9-1.1-2.3-2.8-4.1-4.7l3.5-6.4c.8-1.4.2-3.2-1.2-4s-3.2-.2-4 1.2l-2.7 5c-2.2-1.9-4.7-3.8-7.6-5.7l3.4-8.8c.6-1.5-.2-3.2-1.7-3.8s-3.2.2-3.8 1.7l-3.1 8c-2.5-1.3-5.3-2.4-8.2-3.3l2.2-10.6c.3-1.6-.7-3.1-2.3-3.5-1.6-.3-3.1.7-3.5 2.3l-2.2 10.4c-2.4-.5-4.9-.8-7.6-1V9.5c0-1.6-1.3-2.9-2.9-2.9S47 7.9 47 9.5v12.1c-2.6.1-5.2.5-7.6.9l-2.1-10.3c-.3-1.6-1.9-2.6-3.4-2.3-1.6.3-2.6 1.9-2.3 3.5L33.8 24c-2.9.9-5.7 2-8.2 3.3l-3.1-7.9c-.6-1.5-2.3-2.2-3.8-1.7-1.5.6-2.2 2.3-1.7 3.8l3.4 8.7C17.5 32 15 34 12.8 35.8l-2.6-4.9c-.8-1.4-2.5-1.9-4-1.2-1.4.8-1.9 2.5-1.2 4l3.4 6.2c-1.9 2-3.4 3.7-4.3 4.9-2.4 3.1-2.4 7.4 0 10.5 4.2 5.4 19.7 23 45 23.3h1.4c25.3-.3 40.8-17.9 45-23.3 2.6-3.1 2.6-7.4.2-10.5zM8.9 51.7c-.8-1-.8-2.4 0-3.3 2.4-3.2 8.6-10.2 18.1-15.3-3.5 4.7-5.6 10.6-5.6 16.9s2.1 12.2 5.6 16.9c-9.5-5-15.6-12-18.1-15.2zm41.8 21.1h-1.4c-12.2-.4-22-10.4-22-22.7S37 27.8 49.2 27.4h1.6c12.2.4 21.9 10.4 21.9 22.7s-9.8 22.3-22 22.7zm40.4-21.1C88.7 54.9 82.5 61.9 73 67c3.5-4.7 5.6-10.6 5.6-16.9S76.5 37.9 73 33.2c9.5 5.1 15.7 12.1 18.1 15.3.7.9.7 2.2 0 3.2z"/><path d="M50 36c-1.9 0-3.7.4-5.4 1.1 1.7.9 2.8 2.8 2.8 4.8 0 3.1-2.5 5.5-5.5 5.5-2.1 0-3.9-1.1-4.8-2.8-.7 1.7-1.1 3.5-1.1 5.4 0 7.7 6.3 14 14 14s14-6.3 14-14-6.3-14-14-14z"/></symbol><symbol viewBox="0 0 100 100" id="icon-eye-closed" xmlns="http://www.w3.org/2000/svg"><path d="M98 62.9l-4.6-6.2c1.3-1 2.3-1.9 2.9-2.6 1.3-1.2 1.3-3.1 0-4.2-1.3-1.2-3.2-1.2-4.4 0C88 53.6 73.6 65.5 50 65.5s-38-12-41.9-15.6c-1.3-1.2-3.2-1.2-4.4 0-1.3 1.2-1.3 3.1 0 4.2.6.6 1.6 1.5 2.8 2.5l-4.7 6.3c-1 1.4-.6 3.2.7 4.2.5.4 1.1.6 1.8.6.9 0 2-.4 2.6-1.3l4.6-6.1c2.1 1.4 4.6 2.9 7.5 4.3l-4.4 8.1c-.8 1.5-.2 3.3 1.4 4 .4.2.9.3 1.5.3 1.1 0 2.2-.6 2.8-1.6l4.5-8.4c2.5 1 5.2 1.8 8.3 2.5l-2.7 9.6c-.4 1.6.5 3.2 2.2 3.7.3.1.5.1.8.1 1.4 0 2.6-.9 3-2.2l2.8-10c2.4.4 5 .6 7.6.7v11c0 1.6 1.4 3 3.1 3 1.8 0 3.1-1.4 3.1-3v-11c2.6-.1 5.2-.4 7.6-.7l2.8 10c.4 1.3 1.7 2.2 3 2.2.3 0 .5 0 .8-.1 1.7-.4 2.6-2.1 2.2-3.7l-2.7-9.6c2.9-.7 5.7-1.6 8.3-2.5l4.4 8.3c.5 1 1.7 1.6 2.8 1.6.5 0 .9-.1 1.5-.3 1.6-.8 2.2-2.6 1.4-4l-4.3-8c2.9-1.4 5.4-2.8 7.5-4.2l4.5 6c.6.8 1.6 1.3 2.5 1.3.6 0 1.3-.2 1.8-.6 1.5-1 1.8-2.9.9-4.2z"/></symbol><symbol viewBox="0 0 61.833 121.667" id="icon-facebook" xmlns="http://www.w3.org/2000/svg"><path d="M41.5 121.667h-25v-57.5H0V41.833h15.167v-14.5c0-5.167 3-27.333 32.166-27.333C56 0 61.5 1.5 61.5 1.5l-.333 19.167s-19.833-1.833-19.833 11.5v9.667h20.5l-2.5 21.843H41.5v57.99z"/></symbol><symbol viewBox="0 0 192 101.454" id="icon-flickr" xmlns="http://www.w3.org/2000/svg"><path d="M141.273 0C121.498 0 104.367 11.316 96 27.825 87.633 11.316 70.502 0 50.727 0 22.711 0 0 22.711 0 50.728c0 28.015 22.711 50.727 50.729 50.727 19.774 0 36.904-11.316 45.271-27.825 8.369 16.509 25.498 27.825 45.274 27.825 28.015 0 50.726-22.711 50.726-50.727C192 22.711 169.289 0 141.273 0zm0 87.927c-20.512 0-37.199-16.688-37.199-37.199s16.688-37.2 37.199-37.2 37.199 16.688 37.199 37.2-16.687 37.199-37.199 37.199z"/></symbol><symbol viewBox="-460.729 249.569 288.402 282.862" id="icon-googleplus" xmlns="http://www.w3.org/2000/svg"><path d="M-315.538 410.478c-26.771-19.523-33.313-30.558-7.761-50.312 14.396-11.133 24.485-25.973 24.485-44.295 0-19.961-8.162-38.071-23.51-46.864h21.755l18.521-19.438h-82.879c-51.736 0-77.105 31.01-77.105 65.123 0 34.857 23.915 62.313 70.615 62.313-7.24 14.617-4.332 28.117 7.514 37.771-79.759 0-96.826 34.998-96.826 61.957 0 34.935 40.154 55.698 88.306 55.698 65.835.002 92.004-34.887 92.004-63.548 0-23.363-8.726-38.628-35.119-58.405zm-95.324-96.307c-3.858-29.341 11.122-51.789 33.458-51.124 22.329.676 41.44 24.737 45.294 54.07 3.853 29.338-8.999 48.216-31.327 47.552-22.34-.673-43.569-21.165-47.425-50.498zm38.672 202.735c-33.281 0-57.312-21.063-57.312-46.375 0-24.8 28.202-46.195 61.479-45.829 36.928 0 58.938 22.996 58.938 47.122-.001 25.311-20.558 45.082-63.105 45.082zM-172.327 291.626h-38.235v-38.233h-19.118v38.233h-38.233v19.117h38.233v38.235h19.117v-38.235h38.235z"/></symbol><symbol viewBox="0 0 512 512" id="icon-instagram" xmlns="http://www.w3.org/2000/svg"><path d="M256 49.5c67.3 0 75.2.3 101.8 1.5 24.6 1.1 37.9 5.2 46.8 8.7 11.8 4.6 20.2 10 29 18.8s14.3 17.2 18.8 29c3.4 8.9 7.6 22.2 8.7 46.8 1.2 26.6 1.5 34.5 1.5 101.8s-.3 75.2-1.5 101.8c-1.1 24.6-5.2 37.9-8.7 46.8-4.6 11.8-10 20.2-18.8 29s-17.2 14.3-29 18.8c-8.9 3.4-22.2 7.6-46.8 8.7-26.6 1.2-34.5 1.5-101.8 1.5s-75.2-.3-101.8-1.5c-24.6-1.1-37.9-5.2-46.8-8.7-11.8-4.6-20.2-10-29-18.8s-14.3-17.2-18.8-29c-3.4-8.9-7.6-22.2-8.7-46.8-1.2-26.6-1.5-34.5-1.5-101.8s.3-75.2 1.5-101.8c1.1-24.6 5.2-37.9 8.7-46.8 4.6-11.8 10-20.2 18.8-29s17.2-14.3 29-18.8c8.9-3.4 22.2-7.6 46.8-8.7 26.6-1.3 34.5-1.5 101.8-1.5m0-45.4c-68.4 0-77 .3-103.9 1.5C125.3 6.8 107 11.1 91 17.3c-16.6 6.4-30.6 15.1-44.6 29.1-14 14-22.6 28.1-29.1 44.6-6.2 16-10.5 34.3-11.7 61.2C4.4 179 4.1 187.6 4.1 256s.3 77 1.5 103.9c1.2 26.8 5.5 45.1 11.7 61.2 6.4 16.6 15.1 30.6 29.1 44.6 14 14 28.1 22.6 44.6 29.1 16 6.2 34.3 10.5 61.2 11.7 26.9 1.2 35.4 1.5 103.9 1.5s77-.3 103.9-1.5c26.8-1.2 45.1-5.5 61.2-11.7 16.6-6.4 30.6-15.1 44.6-29.1 14-14 22.6-28.1 29.1-44.6 6.2-16 10.5-34.3 11.7-61.2 1.2-26.9 1.5-35.4 1.5-103.9s-.3-77-1.5-103.9c-1.2-26.8-5.5-45.1-11.7-61.2-6.4-16.6-15.1-30.6-29.1-44.6-14-14-28.1-22.6-44.6-29.1-16-6.2-34.3-10.5-61.2-11.7-27-1.1-35.6-1.4-104-1.4z"/><path d="M256 126.6c-71.4 0-129.4 57.9-129.4 129.4s58 129.4 129.4 129.4 129.4-58 129.4-129.4-58-129.4-129.4-129.4zm0 213.4c-46.4 0-84-37.6-84-84s37.6-84 84-84 84 37.6 84 84-37.6 84-84 84z"/><circle cx="390.5" cy="121.5" r="30.2"/></symbol><symbol viewBox="0 0 30.57 27.841" id="icon-linkedin" xmlns="http://www.w3.org/2000/svg"><defs><clipPath id="ha"><path data-name="Rectangle 6031" fill="none" stroke="#565250" stroke-width=".1" d="M0 0h30.57v27.841H0z"/></clipPath></defs><g data-name="Groupe 5579"><g data-name="Groupe 5578" clip-path="url(#ha)" opacity=".8"><path data-name="Tracé 10327" d="M26.873 16.425v8.573h-4.967v-8c0-2.008-.719-3.379-2.516-3.379a2.719 2.719 0 0 0-2.55 1.816 3.4 3.4 0 0 0-.165 1.212v8.351h-4.968s.066-13.54 0-14.942h4.968v2.117c-.01.016-.023.033-.032.049h.032v-.049a4.933 4.933 0 0 1 4.478-2.475c3.269 0 5.72 2.137 5.72 6.727zM6.508 2.848a2.589 2.589 0 1 0-.061 5.164h.034a2.59 2.59 0 1 0 .027-5.164zm-2.517 22.15h4.968V10.052H3.991z" fill="none" stroke="#565250" stroke-linecap="round" stroke-linejoin="round" stroke-width=".7"/></g></g></symbol><symbol viewBox="96.526 50 318.949 412.001" id="icon-pinterest" xmlns="http://www.w3.org/2000/svg"><path d="M265.653 50C153.22 50 96.526 130.612 96.526 197.833c0 40.702 15.411 76.914 48.462 90.41 5.418 2.215 10.275.077 11.847-5.925 1.093-4.152 3.681-14.631 4.835-18.99 1.584-5.936.97-8.018-3.403-13.191-9.53-11.242-15.621-25.795-15.621-46.408 0-59.806 44.746-113.343 116.516-113.343 63.549 0 98.465 38.831 98.465 90.69 0 68.234-30.198 125.824-75.026 125.824-24.759 0-43.29-20.476-37.351-45.586 7.114-29.98 20.894-62.333 20.894-83.975 0-19.37-10.397-35.527-31.918-35.527-25.308 0-45.639 26.182-45.639 61.254 0 22.337 7.549 37.446 7.549 37.446s-25.898 109.737-30.439 128.954c-9.043 38.273-1.36 85.193-.708 89.932.381 2.809 3.989 3.476 5.621 1.354 2.335-3.047 32.479-40.26 42.727-77.441 2.899-10.527 16.647-65.049 16.647-65.049 8.222 15.684 32.251 29.497 57.806 29.497 76.074 0 127.688-69.354 127.688-162.187C415.474 115.374 356.018 50 265.653 50z"/></symbol><symbol viewBox="0 0 363.2 385.3" id="icon-share" xmlns="http://www.w3.org/2000/svg"><path d="M294.2 247.5c-22.2 0-41.9 10.6-54.6 26.9l-105.8-59.1c2.5-7.1 3.8-14.8 3.8-22.7 0-8-1.4-15.6-3.9-22.8l105.8-59c12.6 16.4 32.4 27 54.6 27 37.9 0 68.9-30.9 68.9-68.9S332.2 0 294.2 0s-68.9 30.9-68.9 68.9c0 8 1.4 15.7 3.9 22.8l-105.7 59c-12.6-16.5-32.4-27-54.6-27C31 123.7 0 154.6 0 192.6s31 68.9 69 68.9c22.2 0 42.1-10.6 54.7-27.1l105.8 59.1c-2.6 7.2-4 15-4 23 0 37.9 30.9 68.9 68.9 68.9s68.9-30.9 68.9-68.9-31.1-69-69.1-69zm0-225.8c26.1 0 47.3 21.2 47.3 47.3 0 26.1-21.2 47.3-47.3 47.3-26-.1-47.2-21.3-47.2-47.3 0-26.1 21.2-47.3 47.2-47.3zM69 239.8c-26.1 0-47.3-21.2-47.3-47.3 0-26.1 21.2-47.3 47.3-47.3 26.1 0 47.3 21.2 47.3 47.3-.1 26.1-21.3 47.3-47.3 47.3zm225.2 123.8c-26.1 0-47.3-21.2-47.3-47.3 0-26.1 21.2-47.3 47.3-47.3 26.1 0 47.3 21.2 47.3 47.3 0 26.1-21.2 47.3-47.3 47.3zm0 0"/></symbol><symbol viewBox="0 0 100 176.3" id="icon-tumblr" xmlns="http://www.w3.org/2000/svg"><path d="M100 75H62.5v48.8c0 8.8 1.2 13.7 13.7 13.7H100V175s-12.5 1.2-26.2 1.2c-32.5 0-48.8-20-48.8-42.5V74.9H0V40c30-2.5 32.5-25 35-40h27.5v37.5H100V75z"/></symbol><symbol viewBox="0 0 103.15 83.829" id="icon-twitter" xmlns="http://www.w3.org/2000/svg"><path d="M103.15 9.923a42.323 42.323 0 0 1-12.154 3.333c4.369-2.619 7.726-6.766 9.306-11.708a42.393 42.393 0 0 1-13.438 5.135A21.141 21.141 0 0 0 71.416 0C57.757 0 47.714 12.748 50.802 25.985c-17.589-.882-33.183-9.308-43.619-22.111-5.546 9.509-2.876 21.955 6.549 28.254a21.066 21.066 0 0 1-9.586-2.647c-.229 9.805 6.798 18.973 16.974 21.018-2.979.81-6.241.996-9.557.362 2.692 8.408 10.508 14.525 19.77 14.696C22.434 72.53 11.229 75.644 0 74.32c9.365 6.004 20.49 9.509 32.441 9.509 39.289 0 61.488-33.187 60.15-62.951A42.948 42.948 0 0 0 103.15 9.923z"/></symbol><symbol viewBox="0 0 83.2 96.6" id="icon-viadeo" xmlns="http://www.w3.org/2000/svg"><path d="M65.8 48.5c-.1-.2-.1-.3-.2-.5-.9.5-1.7.9-2.6 1.3-.8.4-1.7.7-2.6 1-.9.3-1.8.5-2.7.8v.2c0 .1.1.2.1.4 1.3 3.2 1.8 6.5 1.9 9.9 0 2.8-.3 5.6-1.2 8.4-1.3 4.1-3.3 7.8-6.3 10.8-4.4 4.5-9.7 6.9-15.9 7.5-.6.1-1.2 0-1.8.1v-.2c.3-.2.6-.5 1-.7 6.5-4.9 11.6-11 15.2-18.3 3-6.1 4.5-12.5 4.7-19.3.1-3.3-.2-6.6-.8-9.9-.7-3.7-1.7-7.3-3-10.8 0-.1-.2-.4-.3-.5-.1-.6-.1-.8-.1-.9v-.3c-.3-3.1-.9-6.1-1.7-9-1.1-4-2.8-7.8-5-11.3C43 4.7 41.2 2.4 39 .5c-.2-.2-.4-.3-.7-.5v.3c.2.3.3.6.5.9 3.8 6.6 7.2 13.4 10.1 20.5.8 1.9 1.5 3.9 2.3 5.8l.2.4c0 .1 0 .3.1.9 0 1 .1 2.1.1 3 .1 5.3 0 10.7-.6 16-.3 2.5-.6 4.9-1 7.3-.5 3.1-1.2 6.1-2.1 9.1-1.1 3.7-2.4 7.2-4.2 10.6-1.6 3-3.6 5.7-6 8.1-2.3 2.2-4.8 3.9-7.7 5.1h-.9c-4-.8-7.5-2.4-10.7-4.9-2.7-2.1-4.9-4.8-6.5-7.9C10.1 72 9 68.5 8.7 64.8c-.2-2.2-.2-4.3.1-6.5.3-2.6 1-5.2 2.1-7.6 1.6-3.6 4-6.7 6.9-9.3 2.3-2 4.8-3.6 7.7-4.7 1.8-.7 3.8-1.1 5.7-1.4 1.7-.2 3.5-.2 5.2-.1 2.2.2 4.4.7 6.5 1.5.2.1.4.1.6.2.2-1.5.5-2.8.9-4.2.4-1.3 1-2.6 1.6-3.9-.3-.3-.7-.3-1-.4-2.8-.9-5.7-1.4-8.7-1.6-3.2-.2-6.3 0-9.4.6-3.7.7-7.2 2.1-10.4 4.1-3.1 1.9-5.7 4.3-8 7.1C3.3 44.7.6 51.7.1 59.7c-.1 2.3 0 4.6.2 6.9.4 3.2 1.2 6.3 2.5 9.3 2.1 4.8 5.1 8.9 9 12.5 2.9 2.6 6.1 4.6 9.7 6 3.4 1.3 6.9 2 10.5 2.1 3.3.2 6.6 0 9.9-.7 4.4-.9 8.5-2.7 12.1-5.4 2.8-2.1 5.2-4.6 7.4-7.5 4.2-5.6 6.4-11.9 6.8-18.9.2-2.9 0-5.7-.4-8.5-.5-2.4-1.1-4.7-2-7z"/><path d="M82.1 10.8c-.7-2.7-1.8-5.3-3.2-7.7-.2-.3-.4-.7-.7-1.1-.2.4-.4.6-.5.9-1 1.8-2.2 3.5-3.7 5-2.3 2.2-4.9 3.8-8 4.5-.3.1-.5.1-.8.2-2.3.7-4.5 1.5-6.5 2.7-1.4.8-2.6 1.9-3.6 3.2-1.9 2.4-2.8 5.1-2.6 8.2.1 2.5.8 4.8 2 7 .1.1.1.2.3.4 9.8-2.4 17.1-8 22.2-16.8v.6c-.2.8-.4 1.5-.8 2.2-.8 1.6-1.8 2.9-2.9 4.2-2 2.2-4.2 4.2-6.6 6-2.9 2.2-5.9 4.2-9 6-.2.1-.5.2-.7.5.4.4.8.8 1.2 1.1 1.6 1.3 3.3 2.4 5.3 3.1 1.9.6 3.8.8 5.7.4 2.4-.4 4.4-1.5 6.2-3 1.8-1.5 3.1-3.3 4.3-5.3.7-1.2 1.3-2.3 1.7-3.6.9-2.6 1.4-5.4 1.6-8.1.4-3.7 0-7.2-.9-10.6z"/></symbol><symbol viewBox="0 0 512 512" id="icon-vimeo" xmlns="http://www.w3.org/2000/svg"><path d="M460.802 160.227c-1.845 40.12-29.853 95.053-84.027 164.78-56.02 72.83-103.412 109.25-142.18 109.25-24.006 0-44.337-22.17-60.935-66.536-11.088-40.66-22.17-81.32-33.253-121.98-12.327-44.34-25.55-66.536-39.69-66.536-3.08 0-13.87 6.49-32.332 19.413L49 173.635c20.33-17.87 40.392-35.742 60.127-53.637 27.115-23.44 47.474-35.767 61.045-37.015 32.062-3.08 51.8 18.846 59.21 65.78 8 50.636 13.542 82.13 16.65 94.46 9.242 42.013 19.408 62.996 30.52 62.996 8.623 0 21.575-13.63 38.85-40.88 17.247-27.254 26.5-47.988 27.74-62.237 2.463-23.52-6.79-35.31-27.74-35.31-9.867 0-20.03 2.272-30.494 6.76 20.248-66.345 58.936-98.57 116.035-96.735 42.334 1.25 62.29 28.714 59.86 82.41z"/></symbol><symbol viewBox="0 0 34.06 23.781" id="icon-youtube" xmlns="http://www.w3.org/2000/svg"><defs><clipPath id="oa"><path data-name="Rectangle 6037" fill="#565250" stroke="#707070" stroke-width=".1" d="M0 0h34.06v23.781H0z"/></clipPath></defs><g data-name="Groupe de masques 5592" clip-path="url(#oa)"><path data-name="Tracé 10333" d="M25.993 21.171H8.065a4.157 4.157 0 0 1-4.151-4.154V6.763a4.157 4.157 0 0 1 4.151-4.154h17.928a4.157 4.157 0 0 1 4.152 4.154v10.254a4.158 4.158 0 0 1-4.152 4.154M8.065 3.27a3.5 3.5 0 0 0-3.49 3.493v10.254a3.5 3.5 0 0 0 3.49 3.492h17.928a3.5 3.5 0 0 0 3.491-3.493V6.763a3.5 3.5 0 0 0-3.491-3.493zm6.406 13.274a.324.324 0 0 1-.157-.04.329.329 0 0 1-.174-.291V6.584a.331.331 0 0 1 .514-.275l7.3 4.816a.331.331 0 0 1 0 .552l-7.3 4.813a.332.332 0 0 1-.182.055m.331-9.346v8.4l6.372-4.2z" fill="#565250" stroke="#565250" stroke-width=".2"/></g></symbol><symbol viewBox="0 0 262 226.8" id="logo" xmlns="http://www.w3.org/2000/svg"><style>.pst0{fill:#8beae3}.pst1{fill:none;stroke:#394553;stroke-width:2;stroke-linecap:round;stroke-linejoin:round;stroke-miterlimit:10}.pst2{opacity:.18}.pst3{fill:#394553}</style><path class="pst0" d="M42 133.6V204c0 7.7 11.7 14 26 14h125.8c14.3 0 26-6.3 26-14l.6-69.8-178.4-.6z"/><path class="pst1" d="M220.5 109.3v89.2c0 10-11.8 18.2-26.2 18.2H67.7c-14.4 0-26.2-8.2-26.2-18.2V107m-2.7 15.6H11m240 0h-27.8"/><path class="pst2" d="M207.8 34.4L34 92.6s23.5-68.7 136.8-72.5c19.3 5.3 30.5 8.9 37 14.3z"/><path class="pst1" d="M89.5 20.5l32.4-10.8m-16.1 5.6l3.4 10m.6 2.1c-35.5 11.9-63 36.6-79 67.1l182.5-61.1c-31.1-14.8-68-17.9-103.5-6z"/><circle class="pst0" cx="171.9" cy="127.3" r="8"><animateTransform attributeName="transform" attributeType="XML" type="translate" values="0 50;0 -50;" dur="4s" repeatCount="indefinite"/><animate id="panimation1" attributeName="opacity" to="1" begin="0s;animation2.end" dur="2s" from="1"/><animate id="panimation2" attributeName="opacity" from="1" to="0" begin="animation1.end" dur="2s"/></circle><circle class="pst0" cx="122.8" cy="113.2" r="5.6"><animateTransform attributeName="transform" attributeType="XML" type="translate" dur="4s" repeatCount="indefinite" values="0 40;0 -20;"/><animate id="panimation1" attributeName="opacity" to="1" begin="0s;animation2.end" dur="2s" from="1"/><animate id="panimation2" attributeName="opacity" from="1" to="0" begin="animation1.end" dur="2s"/></circle><circle class="pst0" cx="179.2" cy="86.8" r="10.3"><animateTransform attributeName="transform" attributeType="XML" type="translate" repeatCount="indefinite" values="0 70;0 -10;" dur="3.5s"/><animate id="panimation1" attributeName="opacity" to="1" begin="0s;animation2.end" from="1" dur="1.5s"/><animate id="panimation2" attributeName="opacity" from="1" to="0" begin="animation1.end" dur="1.5s"/></circle><circle class="pst0" cx="73.3" cy="99.2" r="4.6"><animateTransform attributeName="transform" attributeType="XML" type="translate" repeatCount="indefinite" dur="4s" values="0 50;0 0;"/><animate id="panimation1" attributeName="opacity" to="1" begin="0s;animation2.end" from="1" dur="2s"/><animate id="panimation2" attributeName="opacity" from="1" to="0" begin="animation1.end" dur="2s"/></circle><circle class="pst0" cx="88.7" cy="132.7" r="9.5"><animateTransform attributeName="transform" attributeType="XML" type="translate" repeatCount="indefinite" dur="2s" values="0 10;0 -35;"/><animate id="panimation1" attributeName="opacity" to="1" begin="0s;animation2.end" from="1" dur="1s"/><animate id="panimation2" attributeName="opacity" from="1" to="0" begin="animation1.end" dur="1s"/></circle><path class="pst3" d="M62.6 198.8v-45.5h9l6.5 34.9 6.5-34.9h9v45.5H87v-35.9l-6.5 35.9h-4.9l-6.5-35.9v35.9h-6.5zm34.5 0l6.8-31.9h4.6l6.8 31.9h-4.6l-1.7-8h-5.7l-1.7 8h-4.5zm6.9-11.4h4.6l-2.3-13.7-2.3 13.7zm13.9 11.4v-31.9h5.7c3.4 0 5.9.7 7.7 2 1.7 1.3 2.6 3.5 2.6 6.6 0 1.9-.3 3.5-1 4.8-.7 1.3-1.7 2.2-3 2.6l5.1 15.9h-4.5l-4.6-14.8h-3.4v14.8h-4.6zm4.6-18.2h1.1c1.9 0 3.3-.4 4.3-1.2.9-.8 1.4-2.1 1.4-3.9 0-1.8-.5-3.1-1.4-3.9s-2.4-1.2-4.3-1.2h-1.1v10.2zm15.2 18.2v-31.9h6.3l4.5 24.4 4.5-24.4h6.3v31.9h-4.6v-25.2l-4.6 25.2h-3.4l-4.6-25.2v25.2h-4.4zm26.4 0v-31.9h4.6v31.9h-4.6zm12.9 0V171h-5.7v-4.1h15.9v4.1h-5.7v27.8H177zm12.5 0v-31.9H202v3.4h-8v10.2h5.7v3.4H194v11.4h8v3.4h-12.5z"/></symbol></svg>