<svg xmlns="http://www.w3.org/2000/svg" viewBox="0 0 262 226.8"><style>.st0{fill:#8beae3}.st1{fill:none;stroke:#394553;stroke-width:2;stroke-linecap:round;stroke-linejoin:round;stroke-miterlimit:10}</style><path class="st0" d="M42 133.6V204c0 7.7 11.7 14 26 14h125.8c14.3 0 26-6.3 26-14l.6-69.8-178.4-.6z"/><path class="st1" d="M220.5 109.3v89.2c0 10-11.8 18.2-26.2 18.2H67.7c-14.4 0-26.2-8.2-26.2-18.2V107m-2.7 15.6H11m240 0h-27.8"/><path d="M207.8 34.4L34 92.6s23.5-68.7 136.8-72.5c19.3 5.3 30.5 8.9 37 14.3z" opacity=".18"/><path class="st1" d="M89.5 20.5l32.4-10.8m-16.1 5.6l3.4 10m.6 2.1c-35.5 11.9-63 36.6-79 67.1l182.5-61.1c-31.1-14.8-68-17.9-103.5-6z"/><circle class="st0" cx="171.9" cy="127.3" r="8"><animateTransform attributeName="transform" attributeType="XML" type="translate" values="0 50;0 -50;" dur="4s" repeatCount="indefinite"/><animate id="animation1" attributeName="opacity" to="1" begin="0s;animation2.end" dur="2s" from="1"/><animate id="animation2" attributeName="opacity" from="1" to="0" begin="animation1.end" dur="2s"/></circle><circle class="st0" cx="122.8" cy="113.2" r="5.6"><animateTransform attributeName="transform" attributeType="XML" type="translate" dur="4s" repeatCount="indefinite" values="0 40;0 -20;"/><animate id="animation1" attributeName="opacity" to="1" begin="0s;animation2.end" dur="2s" from="1"/><animate id="animation2" attributeName="opacity" from="1" to="0" begin="animation1.end" dur="2s"/></circle><circle class="st0" cx="179.2" cy="86.8" r="10.3"><animateTransform attributeName="transform" attributeType="XML" type="translate" repeatCount="indefinite" values="0 70;0 -10;" dur="3.5s"/><animate id="animation1" attributeName="opacity" to="1" begin="0s;animation2.end" from="1" dur="1.5s"/><animate id="animation2" attributeName="opacity" from="1" to="0" begin="animation1.end" dur="1.5s"/></circle><circle class="st0" cx="73.3" cy="99.2" r="4.6"><animateTransform attributeName="transform" attributeType="XML" type="translate" repeatCount="indefinite" dur="4s" values="0 50;0 0;"/><animate id="animation1" attributeName="opacity" to="1" begin="0s;animation2.end" from="1" dur="2s"/><animate id="animation2" attributeName="opacity" from="1" to="0" begin="animation1.end" dur="2s"/></circle><circle class="st0" cx="88.7" cy="132.7" r="9.5"><animateTransform attributeName="transform" attributeType="XML" type="translate" repeatCount="indefinite" dur="2s" values="0 10;0 -35;"/><animate id="animation1" attributeName="opacity" to="1" begin="0s;animation2.end" from="1" dur="1s"/><animate id="animation2" attributeName="opacity" from="1" to="0" begin="animation1.end" dur="1s"/></circle><path d="M62.6 198.8v-45.5h9l6.5 34.9 6.5-34.9h9v45.5H87v-35.9l-6.5 35.9h-4.9l-6.5-35.9v35.9h-6.5zm34.5 0l6.8-31.9h4.6l6.8 31.9h-4.6l-1.7-8h-5.7l-1.7 8h-4.5zm6.9-11.4h4.6l-2.3-13.7-2.3 13.7zm13.9 11.4v-31.9h5.7c3.4 0 5.9.7 7.7 2 1.7 1.3 2.6 3.5 2.6 6.6 0 1.9-.3 3.5-1 4.8-.7 1.3-1.7 2.2-3 2.6l5.1 15.9h-4.5l-4.6-14.8h-3.4v14.8h-4.6zm4.6-18.2h1.1c1.9 0 3.3-.4 4.3-1.2.9-.8 1.4-2.1 1.4-3.9 0-1.8-.5-3.1-1.4-3.9s-2.4-1.2-4.3-1.2h-1.1v10.2zm15.2 18.2v-31.9h6.3l4.5 24.4 4.5-24.4h6.3v31.9h-4.6v-25.2l-4.6 25.2h-3.4l-4.6-25.2v25.2h-4.4zm26.4 0v-31.9h4.6v31.9h-4.6zm12.9 0V171h-5.7v-4.1h15.9v4.1h-5.7v27.8H177zm12.5 0v-31.9H202v3.4h-8v10.2h5.7v3.4H194v11.4h8v3.4h-12.5z" fill="#394553"/></svg>