<?xml version="1.0" encoding="utf-8"?>
<!-- Generator: Adobe Illustrator 22.1.0, SVG Export Plug-In . SVG Version: 6.00 Build 0)  -->
<svg version="1.1" id="Calque_2" xmlns="http://www.w3.org/2000/svg" xmlns:xlink="http://www.w3.org/1999/xlink" x="0px" y="0px"
	 viewBox="0 0 262 226.8" style="enable-background:new 0 0 262 226.8;" xml:space="preserve">
<style type="text/css">
	.st0{fill:#8BEAE3;}
	.st1{fill:none;stroke:#394553;stroke-width:2;stroke-linecap:round;stroke-linejoin:round;stroke-miterlimit:10;}
	.st2{opacity:0.18;}
	.st3{fill:#394553;}
</style>
<g>
	<path class="st0" d="M42,133.6v70.4c0,7.7,11.7,14,26,14h125.8c14.3,0,26-6.3,26-14l0.6-69.8L42,133.6z"/>
	<g>
		<path class="st1" d="M220.5,109.3v89.2c0,10-11.8,18.2-26.2,18.2H67.7c-14.4,0-26.2-8.2-26.2-18.2v-91.5"/>
		<g>
			<line class="st1" x1="38.8" y1="122.6" x2="11" y2="122.6"/>
			<line class="st1" x1="251" y1="122.6" x2="223.2" y2="122.6"/>
		</g>
	</g>
	<g>
		<path class="st2" d="M207.8,34.4L34,92.6c0,0,23.5-68.7,136.8-72.5C190.1,25.4,201.3,29,207.8,34.4z"/>
		<line class="st1" x1="89.5" y1="20.5" x2="121.9" y2="9.7"/>
		<line class="st1" x1="105.8" y1="15.3" x2="109.2" y2="25.3"/>
		<g>
			<path class="st1" d="M109.8,27.4c-35.5,11.9-63,36.6-79,67.1l182.5-61.1C182.2,18.6,145.3,15.5,109.8,27.4z"/>
		</g>
	</g>
	<circle class="st0" cx="171.9" cy="127.3" r="8"/>
	<circle class="st0" cx="122.8" cy="113.2" r="5.6"/>
	<circle class="st0" cx="179.2" cy="86.8" r="10.3"/>
	<circle class="st0" cx="73.3" cy="99.2" r="4.6"/>
	<circle class="st0" cx="88.7" cy="132.7" r="9.5"/>
</g>
<g>
	<path class="st3" d="M62.6,198.8v-45.5h9l6.5,34.9l6.5-34.9h9v45.5H87v-35.9l-6.5,35.9h-4.9l-6.5-35.9v35.9H62.6z"/>
	<path class="st3" d="M97.1,198.8l6.8-31.9h4.6l6.8,31.9h-4.6l-1.7-8h-5.7l-1.7,8H97.1z M104,187.4h4.6l-2.3-13.7L104,187.4z"/>
	<path class="st3" d="M117.9,198.8v-31.9h5.7c3.4,0,5.9,0.7,7.7,2c1.7,1.3,2.6,3.5,2.6,6.6c0,1.9-0.3,3.5-1,4.8
		c-0.7,1.3-1.7,2.2-3,2.6l5.1,15.9h-4.5l-4.6-14.8h-3.4v14.8H117.9z M122.5,180.6h1.1c1.9,0,3.3-0.4,4.3-1.2
		c0.9-0.8,1.4-2.1,1.4-3.9c0-1.8-0.5-3.1-1.4-3.9s-2.4-1.2-4.3-1.2h-1.1V180.6z"/>
	<path class="st3" d="M137.7,198.8v-31.9h6.3l4.5,24.4l4.5-24.4h6.3v31.9h-4.6v-25.2l-4.6,25.2h-3.4l-4.6-25.2v25.2H137.7z"/>
	<path class="st3" d="M164.1,198.8v-31.9h4.6v31.9H164.1z"/>
	<path class="st3" d="M177,198.8V171h-5.7v-4.1h15.9v4.1h-5.7v27.8H177z"/>
	<path class="st3" d="M189.5,198.8v-31.9h12.5v3.4h-8v10.2h5.7v3.4h-5.7v11.4h8v3.4H189.5z"/>
</g>
</svg>
